<?xml version="1.0" encoding="UTF-8" standalone="no"?>
<!DOCTYPE svg PUBLIC "-//W3C//DTD SVG 1.1//EN" "http://www.w3.org/Graphics/SVG/1.1/DTD/svg11.dtd">
<svg width="100%" height="100%" viewBox="0 0 1250 191" version="1.1" xmlns="http://www.w3.org/2000/svg" xmlns:xlink="http://www.w3.org/1999/xlink" xml:space="preserve" xmlns:serif="http://www.serif.com/" style="fill-rule:evenodd;clip-rule:evenodd;stroke-linejoin:round;stroke-miterlimit:2;">
    <g transform="matrix(1,0,0,1,-1,-536)">
        <g id="アートボード2" transform="matrix(1,0,0,1,4338.64,1295.39)">
            <rect x="-4337.64" y="-759.395" width="1250" height="190.527" style="fill:none;"/>
            <clipPath id="_clip1">
                <rect x="-4337.64" y="-759.395" width="1250" height="190.527"/>
            </clipPath>
            <g clip-path="url(#_clip1)">
                <g transform="matrix(1,0,0,1,-6094.85,509.231)">
                    <g transform="matrix(1.78113,0,0,-1.78113,1740.47,-857.61)">
                        <path d="M437,136.4C436.8,136.6 436.7,136.9 436.6,137.2L435.7,143.5L434.8,137.2C434.8,136.9 434.6,136.6 434.4,136.4C434.2,136.2 433.9,136.1 433.6,136L427.3,135.1L433.6,134.2C433.9,134.2 434.2,134 434.4,133.8C434.6,133.6 434.7,133.3 434.8,133L435.7,126.7L436.6,133C436.6,133.3 436.8,133.6 437,133.8C437.2,134 437.5,134.1 437.8,134.2L444.1,135.1L437.8,136C437.4,136 437.2,136.2 437,136.4Z" style="fill:rgb(67,37,101);fill-rule:nonzero;"/>
                    </g>
                    <g transform="matrix(1.78113,0,0,-1.78113,1740.47,-947.735)">
                        <path d="M675.7,112.5C674.2,112.1 673.3,110.6 673.7,109.2C674.1,107.7 675.6,106.8 677,107.2C678.5,107.6 679.4,109.1 679,110.5C678.6,111.9 677.2,112.8 675.7,112.5ZM676.9,107.9C675.8,107.6 674.8,108.3 674.5,109.3C674.2,110.4 674.9,111.4 675.9,111.7C677,112 678,111.3 678.3,110.3C678.6,109.2 678,108.2 676.9,107.9Z" style="fill:rgb(67,37,101);fill-rule:nonzero;"/>
                    </g>
                    <g transform="matrix(1.78113,0,0,-1.78113,1740.47,-945.954)">
                        <path d="M656.6,118.6C655.5,112.4 654.5,111.4 648.3,110.3C654.5,109.2 655.5,108.2 656.6,102C657.7,108.2 658.7,109.2 664.9,110.3C658.6,111.5 657.7,112.4 656.6,118.6Z" style="fill:rgb(67,37,101);fill-rule:nonzero;"/>
                    </g>
                    <g transform="matrix(1.78113,0,0,-1.78113,1740.47,-934.911)">
                        <path d="M609,120.6L608.6,122.6L608.2,120.6C607.2,115.4 606.5,114.7 601.4,113.8L599.4,113.4L601.4,113C606.6,112 607.3,111.3 608.2,106.2L608.6,104.2L609,106.2C610,111.4 610.7,112.1 615.8,113L617.8,113.4L615.8,113.8C610.6,114.7 609.9,115.4 609,120.6ZM608.6,108.1C607.8,111.5 606.7,112.6 603.3,113.4C606.7,114.2 607.8,115.3 608.6,118.7C609.4,115.3 610.5,114.2 613.9,113.4C610.5,112.6 609.4,111.5 608.6,108.1Z" style="fill:rgb(67,37,101);fill-rule:nonzero;"/>
                    </g>
                    <g transform="matrix(1.78113,0,0,-1.78113,1740.47,-948.091)">
                        <path d="M547.3,120L546.9,122L546.5,120C545.1,112.5 544.1,111.5 536.6,110.1L534.6,109.7L536.6,109.3C544.1,107.9 545.1,106.9 546.5,99.4L546.9,97.4L547.3,99.4C548.7,106.9 549.7,107.9 557.2,109.3L559.2,109.7L557.2,110.1C549.7,111.5 548.7,112.5 547.3,120ZM546.9,101.5C545.7,107.1 544.2,108.6 538.6,109.8C544.2,111 545.7,112.5 546.9,118.1C548.1,112.5 549.6,111 555.2,109.8C549.6,108.6 548.1,107.1 546.9,101.5Z" style="fill:rgb(67,37,101);fill-rule:nonzero;"/>
                    </g>
                    <g transform="matrix(1.78113,0,0,-1.78113,1740.47,-959.49)">
                        <path d="M697.2,111.4L697,112.3L696.8,111.4C696.1,107.8 695.7,107.4 692.1,106.7L691.2,106.5L692.1,106.3C695.7,105.6 696.1,105.2 696.8,101.6L697,100.7L697.2,101.6C697.9,105.2 698.3,105.6 701.9,106.3L702.8,106.5L701.9,106.7C698.4,107.3 697.9,107.8 697.2,111.4ZM697,102.5C696.4,105.2 695.7,105.9 693.1,106.4C695.8,107 696.5,107.7 697,110.3C697.6,107.6 698.3,106.9 700.9,106.4C698.3,105.9 697.6,105.2 697,102.5Z" style="fill:rgb(67,37,101);fill-rule:nonzero;"/>
                    </g>
                    <g transform="matrix(1.78113,0,0,-1.78113,1740.47,-974.808)">
                        <path d="M630.6,107.1L630.4,108L630.2,107.1C629.5,103.5 629.1,103.1 625.5,102.4L624.6,102.2L625.5,102C629.1,101.3 629.5,100.9 630.2,97.3L630.4,96.4L630.6,97.3C631.3,100.9 631.7,101.3 635.3,102L636.2,102.2L635.3,102.4C631.8,103 631.3,103.5 630.6,107.1ZM630.4,98.2C629.8,100.9 629.1,101.6 626.5,102.1C629.2,102.7 629.9,103.4 630.4,106C631,103.3 631.7,102.6 634.3,102.1C631.7,101.6 631,100.9 630.4,98.2Z" style="fill:rgb(67,37,101);fill-rule:nonzero;"/>
                    </g>
                    <g transform="matrix(1.78113,0,0,-1.78113,1740.47,-944.173)">
                        <path d="M576.3,112.6C575.3,112.6 574.5,111.8 574.5,110.8C574.5,109.8 575.3,109 576.3,109C577.3,109 578.1,109.8 578.1,110.8C578.2,111.8 577.3,112.6 576.3,112.6Z" style="fill:rgb(67,37,101);fill-rule:nonzero;"/>
                    </g>
                    <g transform="matrix(1.78113,0,0,-1.78113,1740.47,-974.096)">
                        <path d="M683.6,104.2C682.6,104.2 681.8,103.4 681.8,102.4C681.8,101.4 682.6,100.6 683.6,100.6C684.6,100.6 685.4,101.4 685.4,102.4C685.4,103.4 684.6,104.2 683.6,104.2Z" style="fill:rgb(67,37,101);fill-rule:nonzero;"/>
                    </g>
                    <g transform="matrix(1.78113,0,0,-1.78113,1740.47,-918.524)">
                        <path d="M513.1,128.6C512.8,118.5 512.6,118.3 502.5,118C512.6,117.7 512.8,117.5 513.1,107.4C513.4,117.5 513.6,117.7 523.7,118C513.6,118.3 513.3,118.5 513.1,128.6Z" style="fill:rgb(67,37,101);fill-rule:nonzero;"/>
                    </g>
                    <g transform="matrix(1.78113,0,0,-1.78113,1740.47,-1038.22)">
                        <path d="M424,95C423.7,84.9 423.5,84.7 413.4,84.4C423.5,84.1 423.7,83.9 424,73.8C424.3,83.9 424.5,84.1 434.6,84.4C424.5,84.7 424.2,84.9 424,95Z" style="fill:rgb(67,37,101);fill-rule:nonzero;"/>
                    </g>
                    <g transform="matrix(1.78113,0,0,-1.78113,1740.47,-1026.46)">
                        <path d="M221.2,98.3C220.9,88.2 220.7,88 210.6,87.7C220.7,87.4 220.9,87.2 221.2,77.1C221.5,87.2 221.7,87.4 231.8,87.7C221.7,88 221.4,88.2 221.2,98.3Z" style="fill:rgb(67,37,101);fill-rule:nonzero;"/>
                    </g>
                    <g transform="matrix(1.76104,0.266823,-0.266823,1.76104,1783.14,-1526.07)">
                        <ellipse cx="709.564" cy="106.475" rx="1.718" ry="1.687" style="fill:rgb(67,37,101);"/>
                    </g>
                    <g transform="matrix(1.78113,0,0,-1.78113,1740.47,-966.971)">
                        <path d="M524.8,107.3C524,107.3 523.3,107.1 522.7,106.6C522.1,106.1 521.8,105.4 521.7,104.6C521.6,103 522.8,101.6 524.4,101.5L524.6,101.5C526.1,101.5 527.4,102.7 527.5,104.2C527.5,105 527.3,105.7 526.8,106.3C526.3,106.9 525.6,107.2 524.8,107.3ZM524.5,102.3C523.4,102.4 522.5,103.4 522.6,104.5C522.6,105.1 522.9,105.6 523.3,105.9C523.7,106.2 524.2,106.4 524.7,106.4L524.8,106.4C525.4,106.4 525.9,106.1 526.2,105.7C526.6,105.3 526.8,104.7 526.7,104.2C526.7,103.1 525.7,102.2 524.5,102.3Z" style="fill:rgb(67,37,101);fill-rule:nonzero;"/>
                    </g>
                    <g transform="matrix(1.78113,0,0,-1.78113,1740.47,-996.182)">
                        <path d="M561.8,100.7C560.6,100.8 559.4,100.4 558.5,99.6C557.6,98.8 557,97.7 557,96.5C556.8,94 558.8,91.8 561.3,91.6L561.6,91.6C564,91.6 566,93.5 566.2,95.9C566.3,97.1 565.9,98.3 565.1,99.2C564.2,100.1 563.1,100.7 561.8,100.7ZM561.4,92.9C559.6,93 558.2,94.6 558.3,96.4C558.4,97.3 558.7,98.1 559.4,98.7C560,99.2 560.8,99.5 561.6,99.5L561.8,99.5C562.7,99.4 563.5,99.1 564.1,98.4C564.7,97.7 565,96.9 564.9,96C564.7,94.2 563.2,92.8 561.4,92.9Z" style="fill:rgb(67,37,101);fill-rule:nonzero;"/>
                    </g>
                    <g transform="matrix(1.78113,0,0,-1.78113,1740.47,-993.51)">
                        <path d="M594.7,99.1L592.1,103.1L591.9,98.4L587.3,97.2L591.7,95.5L591.5,90.8L594.5,94.5L598.9,92.8L596.3,96.8L599.3,100.5L594.7,99.1ZM597,94.2L594.1,95.3L592.2,92.9L592.4,96L589.5,97.1L592.5,97.9L592.7,101L594.4,98.4L597.4,99.2L595.5,96.8L597,94.2Z" style="fill:rgb(67,37,101);fill-rule:nonzero;"/>
                    </g>
                    <g transform="matrix(1.78113,0,0,-1.78113,1740.47,-866.515)">
                        <path d="M495.1,134.4L493.1,138.7L492.2,134.1L487.5,133.5L491.7,131.2L490.8,126.5L494.2,129.7L498.4,127.4L496.4,131.7L499.8,135L495.1,134.4ZM496.8,129.2L494.1,130.7L491.9,128.6L492.5,131.6L489.8,133.1L492.8,133.5L493.4,136.5L494.7,133.7L497.7,134.1L495.5,132L496.8,129.2Z" style="fill:rgb(67,37,101);fill-rule:nonzero;"/>
                    </g>
                    <g transform="matrix(1.78113,0,0,-1.78113,1740.47,-917.634)">
                        <path d="M422.5,120.4L419.9,124.4L419.7,119.7L415.1,118.5L419.5,116.8L419.3,112.1L422.3,115.8L426.7,114.1L424.1,118.1L427.1,121.8L422.5,120.4ZM424.9,115.4L422,116.5L420.1,114.1L420.3,117.2L417.4,118.3L420.4,119.1L420.6,122.2L422.3,119.6L425.3,120.4L423.4,118L424.9,115.4Z" style="fill:rgb(67,37,101);fill-rule:nonzero;"/>
                    </g>
                    <g transform="matrix(1.78113,0,0,-1.78113,1740.47,-986.207)">
                        <path d="M464.9,106.4C463.9,100.9 463.1,100 457.5,99C463,98 463.9,97.2 464.9,91.6C465.9,97.1 466.7,98 472.3,99C466.8,100 466,100.8 464.9,106.4Z" style="fill:rgb(67,37,101);fill-rule:nonzero;"/>
                    </g>
                    <g transform="matrix(1.78113,0,0,-1.78113,1740.47,-968.93)">
                        <path d="M489.7,106.4L488.7,102.7C486.6,94.9 480.4,88.9 472.5,87.1C460.8,84.4 449,91.8 446.4,103.5C443.7,115.2 451.1,127 462.8,129.6C464.3,130 465.9,130.1 467.5,130.1L471.4,130.1L467.6,130.9C459.1,132.8 450.4,130.7 443.6,125.3C431.5,115.4 429.5,97.6 439.3,85.5C444.1,79.6 450.8,76 458.4,75.2C461.5,74.9 464.7,75.1 467.7,75.8C471.9,76.8 475.8,78.7 479.2,81.4C485.5,86.6 489.3,94.2 489.6,102.4L489.7,106.4ZM478.6,82.2C472.9,77.6 465.8,75.5 458.5,76.2C451.2,76.9 444.6,80.5 440,86.1C430.5,97.8 432.4,115.1 444.1,124.6C447.4,127.3 451.2,129.1 455.3,130.1C458.1,130.7 461,130.9 463.8,130.7C463.4,130.6 463,130.5 462.6,130.5C450.4,127.7 442.7,115.5 445.5,103.3C448.3,91.1 460.5,83.4 472.7,86.2C479.7,87.8 485.5,92.6 488.4,99C487.2,92.4 483.8,86.5 478.6,82.2Z" style="fill:rgb(67,37,101);fill-rule:nonzero;"/>
                    </g>
                    <g transform="matrix(1.78113,0,0,-1.78113,1740.47,-860.103)">
                        <path d="M286.6,135.7C286.4,135.9 286.3,136.2 286.2,136.5L285.3,142.8L284.4,136.5C284.3,136.2 284.2,136 284,135.7C283.8,135.5 283.5,135.4 283.2,135.3L276.9,134.4L283.2,133.5C283.5,133.5 283.7,133.3 284,133.1C284.2,132.9 284.3,132.6 284.4,132.3L285.3,126L286.2,132.3C286.2,132.6 286.4,132.8 286.6,133.1C286.8,133.3 287.1,133.4 287.4,133.5L293.7,134.4L287.4,135.3C287.1,135.3 286.8,135.5 286.6,135.7Z" style="fill:rgb(67,37,101);fill-rule:nonzero;"/>
                    </g>
                    <g transform="matrix(1.78113,0,0,-1.78113,1740.47,-950.407)">
                        <path d="M45.3,111.7C43.8,112.1 42.3,111.2 42,109.7C41.6,108.2 42.5,106.7 44,106.4C45.5,106 47,106.9 47.3,108.4C47.6,109.8 46.7,111.3 45.3,111.7ZM46.5,108.5C46.2,107.4 45.2,106.8 44.1,107.1C43,107.4 42.4,108.4 42.7,109.5C43,110.6 44,111.2 45.1,110.9C46.1,110.6 46.8,109.6 46.5,108.5Z" style="fill:rgb(67,37,101);fill-rule:nonzero;"/>
                    </g>
                    <g transform="matrix(1.78113,0,0,-1.78113,1740.47,-948.447)">
                        <path d="M64.4,117.9C63.3,111.7 62.3,110.7 56.1,109.6C62.3,108.5 63.3,107.5 64.4,101.3C65.5,107.5 66.5,108.5 72.7,109.6C66.5,110.8 65.6,111.7 64.4,117.9Z" style="fill:rgb(67,37,101);fill-rule:nonzero;"/>
                    </g>
                    <g transform="matrix(1.78113,0,0,-1.78113,1740.47,-937.404)">
                        <path d="M112.7,119.9L112.3,121.9L111.9,119.9C110.9,114.7 110.2,114 105.1,113.1L103.1,112.7L105.1,112.3C110.3,111.3 111,110.6 111.9,105.5L112.3,103.5L112.7,105.5C113.7,110.7 114.4,111.4 119.5,112.3L121.5,112.7L119.5,113.1C114.4,114 113.7,114.7 112.7,119.9ZM112.4,107.4C111.6,110.8 110.5,111.9 107.1,112.7C110.5,113.5 111.6,114.6 112.4,118C113.2,114.6 114.3,113.5 117.7,112.7C114.2,111.9 113.2,110.8 112.4,107.4Z" style="fill:rgb(67,37,101);fill-rule:nonzero;"/>
                    </g>
                    <g transform="matrix(1.78113,0,0,-1.78113,1740.47,-950.585)">
                        <path d="M174.4,119.3L174,121.3L173.6,119.3C172.2,111.8 171.2,110.8 163.7,109.4L161.7,109L163.7,108.6C171.2,107.2 172.2,106.2 173.6,98.7L174,96.7L174.4,98.7C175.8,106.2 176.8,107.2 184.3,108.6L186.3,109L184.3,109.4C176.8,110.8 175.8,111.8 174.4,119.3ZM174.1,100.8C172.9,106.4 171.4,107.9 165.8,109.1C171.4,110.3 172.9,111.8 174.1,117.4C175.3,111.8 176.8,110.3 182.4,109.1C176.8,107.9 175.3,106.4 174.1,100.8Z" style="fill:rgb(67,37,101);fill-rule:nonzero;"/>
                    </g>
                    <g transform="matrix(1.78113,0,0,-1.78113,1740.47,-961.984)">
                        <path d="M24.1,110.7L23.9,111.6L23.7,110.7C23,107.1 22.6,106.7 19,106L18.1,105.8L19,105.6C22.6,104.9 23,104.5 23.7,100.9L23.9,100L24.1,100.9C24.8,104.5 25.2,104.9 28.8,105.6L29.7,105.8L28.8,106C25.3,106.6 24.8,107.1 24.1,110.7ZM23.9,101.8C23.3,104.5 22.6,105.2 20,105.7C22.7,106.3 23.4,107 23.9,109.6C24.5,106.9 25.2,106.2 27.8,105.7C25.2,105.2 24.5,104.5 23.9,101.8Z" style="fill:rgb(67,37,101);fill-rule:nonzero;"/>
                    </g>
                    <g transform="matrix(1.78113,0,0,-1.78113,1740.47,-974.808)">
                        <path d="M87.3,107.1L87.1,108L86.9,107.1C86.2,103.5 85.8,103.1 82.2,102.4L81.3,102.2L82.2,102C85.8,101.3 86.2,100.9 86.9,97.3L87.1,96.4L87.3,97.3C88,100.9 88.4,101.3 92,102L92.9,102.2L92,102.4C88.5,103 88,103.5 87.3,107.1ZM87.1,98.2C86.5,100.9 85.8,101.6 83.2,102.1C85.9,102.7 86.6,103.4 87.1,106C87.7,103.3 88.4,102.6 91,102.1C88.4,101.6 87.7,100.9 87.1,98.2Z" style="fill:rgb(67,37,101);fill-rule:nonzero;"/>
                    </g>
                    <g transform="matrix(1.78113,0,0,-1.78113,1740.47,-946.666)">
                        <path d="M144.7,111.9C143.7,111.9 142.9,111.1 142.9,110.1C142.9,109.1 143.7,108.3 144.7,108.3C145.7,108.3 146.5,109.1 146.5,110.1C146.5,111.1 145.7,111.9 144.7,111.9Z" style="fill:rgb(67,37,101);fill-rule:nonzero;"/>
                    </g>
                    <g transform="matrix(1.78113,0,0,-1.78113,1740.47,-976.945)">
                        <path d="M37.4,103.4C36.4,103.4 35.6,102.6 35.6,101.6C35.6,100.6 36.4,99.8 37.4,99.8C38.4,99.8 39.2,100.6 39.2,101.6C39.3,102.5 38.5,103.4 37.4,103.4Z" style="fill:rgb(67,37,101);fill-rule:nonzero;"/>
                    </g>
                    <g transform="matrix(1.78113,0,0,-1.78113,1740.47,-921.018)">
                        <path d="M207.9,127.9C207.6,117.8 207.4,117.6 197.3,117.3C207.4,117 207.6,116.8 207.9,106.7C208.2,116.8 208.4,117 218.5,117.3C208.4,117.6 208.2,117.8 207.9,127.9Z" style="fill:rgb(67,37,101);fill-rule:nonzero;"/>
                    </g>
                    <g transform="matrix(1.76104,-0.266824,0.266824,1.76104,1712.47,-1333.69)">
                        <ellipse cx="11.457" cy="105.764" rx="1.732" ry="1.718" style="fill:rgb(67,37,101);"/>
                    </g>
                    <g transform="matrix(1.78113,0,0,-1.78113,1740.47,-969.643)">
                        <path d="M199.2,103.8C199.2,104.6 198.8,105.3 198.2,105.8C197.6,106.3 196.9,106.6 196.1,106.5C195.3,106.5 194.6,106.1 194.1,105.5C193.6,104.9 193.3,104.2 193.4,103.4C193.5,101.9 194.8,100.7 196.3,100.7L196.5,100.7C198.1,100.8 199.3,102.2 199.2,103.8ZM196.5,101.5C195.4,101.4 194.4,102.3 194.3,103.4C194.3,104 194.4,104.5 194.8,104.9C195.2,105.3 195.7,105.6 196.2,105.6L196.3,105.6C196.8,105.6 197.3,105.4 197.7,105.1C198.1,104.7 198.4,104.2 198.4,103.7C198.5,102.6 197.6,101.6 196.5,101.5Z" style="fill:rgb(67,37,101);fill-rule:nonzero;"/>
                    </g>
                    <g transform="matrix(1.78113,0,0,-1.78113,1740.47,-998.675)">
                        <path d="M164,95.8C163.9,97 163.4,98.1 162.5,98.9C161.6,99.7 160.4,100.1 159.2,100C158,99.9 156.9,99.4 156.1,98.5C155.3,97.6 154.9,96.4 155,95.2C155.2,92.8 157.2,90.9 159.6,90.9L159.9,90.9C162.2,91.1 164.2,93.3 164,95.8ZM159.6,92.2C157.8,92.1 156.2,93.5 156.1,95.3C156,96.2 156.3,97 156.9,97.7C157.5,98.4 158.3,98.8 159.2,98.8L159.4,98.8C160.2,98.8 161,98.5 161.6,98C162.3,97.4 162.7,96.6 162.7,95.7C162.8,93.9 161.5,92.3 159.6,92.2Z" style="fill:rgb(67,37,101);fill-rule:nonzero;"/>
                    </g>
                    <g transform="matrix(1.78113,0,0,-1.78113,1740.47,-995.647)">
                        <path d="M129.2,97.9L129,102.6L126.4,98.6L121.8,99.8L124.8,96.1L122.2,92.1L126.6,93.8L129.6,90.1L129.4,94.8L133.8,96.5L129.2,97.9ZM128.7,92.4L126.8,94.8L123.9,93.7L125.6,96.3L123.7,98.7L126.7,97.9L128.4,100.5L128.6,97.4L131.6,96.6L128.7,95.5L128.7,92.4Z" style="fill:rgb(67,37,101);fill-rule:nonzero;"/>
                    </g>
                    <g transform="matrix(1.78113,0,0,-1.78113,1740.47,-868.653)">
                        <path d="M228.9,133.5L228,138.1L226,133.8L221.3,134.4L224.7,131.1L222.7,126.8L226.9,129.1L230.3,125.9L229.4,130.6L233.6,132.9L228.9,133.5ZM229.1,128L226.9,130.1L224.2,128.6L225.5,131.4L223.3,133.5L226.3,133.1L227.6,135.9L228.2,132.9L231.2,132.5L228.5,131L229.1,128Z" style="fill:rgb(67,37,101);fill-rule:nonzero;"/>
                    </g>
                    <g transform="matrix(1.78113,0,0,-1.78113,1740.47,-919.415)">
                        <path d="M301.3,119.3L301.1,124L298.5,120L293.9,121.2L296.9,117.5L294.3,113.5L298.7,115.2L301.7,111.5L301.5,116.2L305.9,117.9L301.3,119.3ZM300.9,113.8L299,116.2L296.1,115.1L297.8,117.7L295.9,120.1L298.9,119.3L300.6,121.9L300.8,118.8L303.8,118L300.9,116.9L300.9,113.8Z" style="fill:rgb(67,37,101);fill-rule:nonzero;"/>
                    </g>
                    <g transform="matrix(-1.78113,0,0,-1.78113,2652.77,-988.701)">
                        <path d="M256.1,90.9C255.1,96.4 254.3,97.3 248.7,98.3C254.2,99.3 255.1,100.1 256.1,105.7C257.1,100.2 257.9,99.3 263.5,98.3C258,97.3 257.2,96.4 256.1,90.9Z" style="fill:rgb(67,37,101);fill-rule:nonzero;"/>
                    </g>
                    <g transform="matrix(-1.78113,0,0,-1.78113,2805.59,-1065.65)">
                        <path d="M299,69.3C298,74.8 297.2,75.7 291.6,76.7C297.1,77.7 298,78.5 299,84.1C300,78.6 300.8,77.7 306.4,76.7C300.9,75.7 300.1,74.8 299,69.3Z" style="fill:rgb(67,37,101);fill-rule:nonzero;"/>
                    </g>
                    <g transform="matrix(-1.78113,0,0,-1.78113,3529.8,-1010.43)">
                        <path d="M502.3,84.8C501.3,90.3 500.5,91.2 494.9,92.2C500.4,93.2 501.3,94 502.3,99.6C503.3,94.1 504.1,93.2 509.7,92.2C504.2,91.2 503.4,90.3 502.3,84.8Z" style="fill:rgb(67,37,101);fill-rule:nonzero;"/>
                    </g>
                    <g transform="matrix(1.78113,0,0,-1.78113,1740.47,-971.958)">
                        <path d="M281.8,84.6C291.6,96.7 289.7,114.5 277.5,124.4C270.7,129.9 262,131.9 253.5,130L249.7,129.2L253.6,129.2C255.2,129.2 256.7,129 258.3,128.7C270,126 277.4,114.3 274.7,102.6C272,90.9 260.3,83.5 248.6,86.2C240.7,88 234.5,94 232.4,101.8L231.4,105.5L231.5,101.6C231.8,93.4 235.6,85.8 241.9,80.6C245.3,77.8 249.3,75.9 253.4,75C256.4,74.3 259.5,74.1 262.7,74.4C270.2,75.1 277,78.8 281.8,84.6ZM262.6,75.2C255.3,74.5 248.1,76.6 242.5,81.2C237.3,85.4 233.9,91.4 232.8,97.9C235.7,91.5 241.4,86.7 248.5,85.1C260.7,82.3 272.9,90 275.7,102.2C278.5,114.4 270.8,126.6 258.6,129.4C258.2,129.5 257.8,129.6 257.4,129.6C260.3,129.9 263.2,129.7 265.9,129C269.9,128.1 273.7,126.2 277.1,123.5C288.9,113.9 290.7,96.7 281.2,85C276.5,79.5 269.9,76 262.6,75.2Z" style="fill:rgb(67,37,101);fill-rule:nonzero;"/>
                    </g>
                    <g transform="matrix(1.78113,0,0,-1.78113,1740.47,-1006.69)">
                        <path d="M409.1,95.9C409,96 408.9,96 408.8,96.1C408.3,96.3 407.8,96.5 407.3,96.7C406.9,96.9 406.6,97 406.2,97.2C404.5,97.9 403.1,98.1 401.7,97.9C401.3,97.8 400.9,97.8 400.6,97.7C400.3,97.6 399.9,97.6 399.6,97.5C398.6,97.3 397.6,97.3 396.7,98C395.2,99.3 393.4,99.7 391.2,99.1C390.6,98.9 390,98.7 389.5,98.6C389.3,98.5 389,98.4 388.8,98.4C388.3,98.2 387.8,98.2 387.3,98.4C385.9,98.8 384.5,99.3 383.4,99.9C382.6,100.3 381.7,100.4 380.7,100.3C380.5,100.3 380.4,100.3 380.2,100.2C380.3,100.3 380.4,100.4 380.5,100.4C380.7,100.5 381,100.6 381.3,100.7C382.1,100.8 382.9,100.9 383.9,101C384.3,101 384.8,101.1 385.1,101.4C385.2,101.5 385.3,101.6 385.5,101.6C386.6,102.4 387.7,103.4 388.2,105C388.3,105.2 388.4,105.4 388.7,105.5L389,105.7C389.4,105.9 389.9,106.1 390.5,106C391.5,106 392.3,106.1 393.1,106.6C393.4,106.8 393.6,107 393.9,107.2C394.1,107.3 394.2,107.5 394.4,107.6C395.4,108.2 396.1,109.1 396.6,110C396.6,110.1 396.7,110.1 396.7,110.2C397,110.4 397.3,110.7 397.6,110.9C397.8,111.1 398,111.3 398.2,111.4C398.9,111.8 399.5,112.4 399.8,113L399.9,113.1C400,113.2 400.1,113.2 400.2,113.4L400.4,113.8L400.1,114.1C399.8,114.5 399.3,114.2 399.1,114.1L399,114.1C398.5,113.9 398,113.8 397.4,113.9C395.4,114.1 394,113.6 392.9,112.3C392.4,111.7 391.7,111.5 390.9,111.8C390.7,111.8 390.6,111.9 390.3,111.9C389.8,112 389.3,112 388.9,112L388.1,112C386.9,112 385.7,111.6 384.7,110.6C384.3,110.2 383.9,109.8 383.5,109.4L383.1,109C382.9,108.8 382.6,108.6 382.3,108.6C381.8,108.5 381.3,108.4 380.7,108.3L380.1,108.2C379.1,108 378,107.8 376.9,107.3C377.3,108.1 377.9,108.7 378.7,109.1C378.9,109.2 379,109.3 379.2,109.3C379.4,109.4 379.5,109.4 379.8,109.5C379.9,109.6 380.1,109.6 380.2,109.7C380.3,109.8 380.5,109.8 380.6,109.9C381.1,110.2 381.5,110.5 381.8,111C382.5,112 383,112.9 383.3,113.8C383.4,114.2 383.6,114.6 383.8,115C384,115.4 384.2,115.7 384.6,115.9C384.8,116 385,116.1 385.3,116.2C385.6,116.3 385.9,116.4 386.2,116.5C386.7,116.8 387,117.1 387.4,117.5C388.9,119.5 389.8,121.7 390.6,123.9L390.8,124.5L390.1,124.6L389.8,124.6C388.4,124.4 387.4,124 386.6,123.3C386.2,123 385.8,122.6 385.4,122.2C384.9,121.8 384.4,121.3 383.8,120.8C383.2,120.3 382.6,120 382,119.9C379.6,119.6 377.9,118.4 376.8,116.4C376.7,116.2 376.6,116 376.5,115.9C375.9,115.1 375.4,114.6 374.7,114.3C374.2,114.1 373.7,113.9 373,113.6C372.4,113.3 371.9,113 371.5,112.6L371.6,112.7C372.1,113.4 372.6,114.1 372.9,114.7C373.3,115.3 373.6,116 373.7,116.7C373.8,117.1 373.8,117.5 373.7,117.9C373.6,118.3 373.6,118.8 373.6,119.3L373.6,121.6C373.6,121.9 373.8,122.1 374,122.3L374.3,122.5C374.6,122.7 374.9,122.9 375.2,123.1C376.2,123.9 376.8,124.9 377,126.1C377,126.4 377.1,126.6 377.1,126.9L377.1,127C377.1,127.4 377.1,127.9 377,128.3C377,128.5 376.9,128.8 377,129.1C377,129.2 377,129.3 377.1,129.4C377.8,130.5 378.3,131.7 378.6,133.3L378.6,133.4C378.6,133.6 378.5,133.8 378.4,133.9C378.3,134 378.1,134.1 377.8,134C377.6,134 377.5,133.9 377.4,133.8C376.3,133.1 375.3,132.2 374.4,131.1C373.6,130.2 373.2,129.4 373,128.4C372.9,127.9 372.8,127.3 372.5,126.6C372.4,126.5 372.4,126.4 372.2,126.3C371.2,125.9 370.2,125.5 369.4,125C368.4,124.5 367.8,123.7 367.6,122.6C367.5,122.3 367.5,122 367.5,121.6L367.5,119.7C367.5,119.1 367.3,118.8 366.8,118.5C366.7,118.4 366.6,118.4 366.5,118.3L366.4,118.3L366.2,118.2C366.1,118.2 366,118.1 366,118.1C364.9,117.6 364.2,116.8 363.8,115.8C363.6,116.1 363.3,116.4 363,116.8C362.9,116.9 362.8,117 362.8,117.1L362.7,117.2C362.5,117.5 362.4,117.8 362.5,118.1L362.5,118.3C362.6,118.8 362.8,119.2 363,119.5C363.5,120.4 363.8,121.1 364,121.7C364.1,122 364.2,122.4 364.3,122.7C364.4,123.3 364.3,123.8 364.2,124.4C364.1,124.9 363.9,125.5 363.6,125.9C363.1,126.9 362.4,127.8 361.9,128.5C361.6,128.9 361.6,129 361.6,129.1C361.6,129.2 361.8,129.5 361.8,129.6C362,130 362.2,130.4 362.4,130.8C362.6,131.2 362.7,131.5 362.8,131.9C362.9,132.5 362.9,133.1 362.7,133.7C362.6,133.9 362.6,134.1 362.5,134.3L362.5,134.4C362.4,134.6 362.4,134.8 362.3,135.1C362,136.2 361.4,137.2 360.9,137.9C360.8,138 360.8,138.2 360.7,138.2C360.5,138.6 360.3,139.1 360.4,139.7L360.4,139.9C360.5,141.1 360.5,142.3 360.2,143.5C360,144.1 359.9,144.8 359.8,145.3L359.8,145.8L359.5,146.5L359.1,146.1L359,146.1L358.9,146C358.7,145.8 358.7,145.5 358.7,145.4L358.7,145.3C358.6,144.6 358.5,143.8 358.3,143.1C357.9,142.6 357.3,141.7 357.2,140.6L357,140.1C356.9,139.8 356.8,139.5 356.6,139.2C356.4,138.8 356.4,138.4 356.4,137.9C356.5,137.2 356.7,136.5 357,135.8C357.2,135.3 357.2,134.9 356.9,134.3C356.8,134 356.6,133.7 356.3,133.5C355.7,132.9 355.2,132.2 354.8,131.3C353.9,129.5 354.1,127.9 355.3,126.6C355.9,126 356,125.3 355.8,124.3C355.7,124 355.6,123.7 355.4,123.4C355.1,122.8 354.8,122.2 354.6,121.5C354.5,121.2 354.4,120.8 354.3,120.4C354.2,120.2 354.2,119.9 354.1,119.7C353.9,119 353.8,118.2 353.7,117.5L353.7,117.2C353.1,117.7 352.4,118.1 351.7,118.4C351.1,118.7 350.9,119.1 350.9,119.8L350.9,121.6C350.9,123.1 350.2,124.2 348.9,124.9C348,125.3 347.1,125.8 346.2,126.1C346.1,126.2 346,126.2 345.9,126.3C345.7,126.9 345.5,127.5 345.4,128.2C345.3,128.8 345,129.4 344.7,129.9C343.8,131.1 342.7,132.2 341,133.4C340.9,133.4 340.9,133.5 340.7,133.5C340.6,133.5 340.3,133.6 340,133.4C339.8,133.2 339.7,132.9 339.9,132.6C340,132.4 340,132.2 340.1,131.9L340.1,131.8C340.2,131.3 340.4,130.7 340.7,130.2L340.9,129.8C341,129.5 341.2,129.3 341.3,129C341.5,128.7 341.5,128.4 341.5,128.1C341.4,127.6 341.4,127.2 341.4,126.7L341.4,126.4C341.4,124.9 341.9,123.7 343.2,122.6C343.4,122.4 343.7,122.3 343.9,122.1C344,122 344.2,121.9 344.3,121.8C344.8,121.5 344.9,121.1 344.8,120.5L344.8,117.6C344.6,116.2 345,115 345.7,113.9C345.9,113.5 346.2,113.2 346.4,112.8L346.8,112.2C346.8,112.2 346.8,112.1 346.9,112.1C346.7,112.3 346.5,112.4 346.2,112.6C345.5,113.1 344.7,113.4 343.9,113.7L343.8,113.7C343.3,113.9 342.8,114.2 342.4,114.7C342,115.1 341.8,115.5 341.5,116C341.3,116.4 341,117 340.5,117.4C339.1,118.7 337.8,119.3 336.2,119.4C335.7,119.4 335.3,119.6 335,119.9C334.7,120.2 334.3,120.5 334,120.7C333.6,121 333.2,121.3 332.9,121.7C332.3,122.3 331.6,123 330.8,123.4C330.2,123.7 329.5,123.9 328.7,124L328.3,124L327.8,123.9L327.8,123.4C327.8,123.3 327.8,123.2 327.9,122.9C328,122.8 328,122.6 328.1,122.5C328.2,122.3 328.3,122.1 328.4,121.9C329,120.1 329.9,118.5 331,117C331.5,116.2 332.2,115.8 333.2,115.5C333.9,115.3 334.3,114.9 334.6,114.4C334.8,114 335,113.6 335.1,113.2C335.3,112.6 335.6,112.1 335.9,111.5C336.7,110.1 337.6,109.2 339,108.8C339.7,108.6 340.4,108.1 341.1,107.4C341.3,107.2 341.4,106.9 341.6,106.7C341.1,106.9 340.5,107.1 339.9,107.3L339.8,107.3C338.7,107.5 337.6,107.7 336.5,107.9C336,108 335.7,108.1 335.4,108.4L335.2,108.6C334.8,109.1 334.3,109.5 333.9,110C332.9,111 331.8,111.5 330.5,111.4L329.1,111.4C328.6,111.4 328.2,111.3 327.8,111.2C327,110.9 326.3,111.1 325.6,111.8C325.3,112.2 324.9,112.6 324.4,112.8C323.3,113.3 322.3,113.4 321.4,113.3C320.7,113.2 320.1,113.3 319.6,113.5C319.4,113.6 319.2,113.7 318.9,113.6L317.9,113.4L318.6,112.6C318.7,112.4 318.9,112.3 319,112.1C319.2,111.8 319.5,111.5 319.8,111.2C320.3,110.8 320.8,110.5 321.3,110.1L321.8,109.7L321.9,109.6C322.6,108.3 323.7,107.5 324.7,106.7C325.7,105.9 326.9,105.5 328.1,105.6C328.7,105.6 329.2,105.4 329.7,105.2C330.1,105 330.3,104.8 330.4,104.5C330.8,103.3 331.7,102.4 332.5,101.7C333.1,101.2 333.7,100.7 334.6,100.6C335.3,100.6 336,100.5 336.6,100.4L337.2,100.3C337.6,100.2 338,100.1 338.3,99.8C338.1,99.8 338,99.8 337.8,99.9L337.5,99.9C336.9,99.9 336.3,100 335.7,99.7C334.8,99.3 333.9,99 333,98.6L332.4,98.4C331.6,98.1 330.4,97.8 329.3,98.3C328.6,98.6 327.8,98.9 326.8,99.1C325.3,99.4 323.9,99.2 322.7,98.5C322.4,98.3 322.1,98.1 321.9,97.9C321.4,97.4 320.8,97.2 320.1,97.2C319.5,97.2 318.9,97.3 318.3,97.4L318,97.5C317.3,97.6 316.6,97.8 315.9,97.8C314.6,97.8 313.2,97.5 311.7,96.8C311.5,96.7 311.3,96.6 311.1,96.5C310.7,96.3 310.2,96.1 309.7,95.9C309.5,95.8 309.3,95.8 309.2,95.6L308.4,94.7L309.8,94.7C311,94.3 312.1,94.1 313.3,94.1C314.1,94.1 314.8,93.9 315.3,93.4C316.1,92.6 317.1,92.3 318,92C319.1,91.6 320.1,91.7 321.2,92.2C321.6,92.4 322.1,92.6 322.5,92.8C322.8,93 323.1,93.1 323.3,93.3C323.4,93.3 323.4,93.4 323.5,93.4C323.9,93.6 324.3,93.7 324.8,93.6C325.5,93.5 326,93.1 326.5,92.8C327.6,92 328.8,91.5 330.3,91.2C331.8,90.9 333.5,90.8 335.2,91.5C335.4,91.6 335.7,91.6 335.9,91.6C336.7,91.7 337.3,91.2 338,90.7L338.1,90.7L338.2,90.6C337.6,90.2 337.1,89.8 336.6,89.4C336.4,89.3 336.2,89.2 336,89.1C335,88.8 333.9,88.6 332.9,89.1C332.8,89.1 332.7,89.2 332.5,89.2L332.4,89.2C331.4,89.5 330.4,89.4 329.5,88.8C328.1,88 327.1,87.1 326.4,86C325.9,85.2 325.3,84.7 324.4,84.4C323.9,84.2 323.3,84.1 322.8,84.1C321.5,84.1 320.3,83.8 319.4,83.1C318.5,82.5 317.6,81.8 316.5,80.9L316.4,80.9C316.3,80.8 315.9,80.5 316.1,80.1C316.2,79.8 316.5,79.5 316.9,79.5C317.1,79.5 317.4,79.5 317.6,79.6C318.1,79.7 318.5,79.9 319,80.2C320.3,80.9 321.6,80.7 322.6,80.5C323.2,80.4 323.8,80.3 324.5,80.1C325.7,79.8 326.9,79.9 328.1,80.6L328.3,80.7C328.6,80.9 328.8,81 329.1,81.2L329.3,81.4C329.7,81.7 330.1,82 330.5,82.2C330.6,82.3 330.8,82.4 330.9,82.4C331.1,82.5 331.3,82.6 331.5,82.6C332.7,82.7 333.9,82.8 335.3,83L335.9,83C336.8,83.1 337.8,83.1 338.7,83.4C338.6,83.3 338.5,83.2 338.3,83.1C338.1,82.9 337.9,82.8 337.6,82.8C337.2,82.7 336.8,82.7 336.4,82.7C335.9,82.7 335.5,82.6 335.1,82.4C333.8,81.7 332.5,80.8 331.9,79.2L331.8,78.9C331.7,78.6 331.6,78.4 331.5,78.1C331.2,77.3 330.7,76.9 330,76.8C329.7,76.7 329.4,76.7 329.1,76.6C328.5,76.5 328,76.3 327.6,76C326.8,75.4 326,74.7 325.2,74.1C324.7,73.7 324.3,73.2 323.9,72.7C323.7,72.5 323.6,72.3 323.4,72.1C323.4,72.1 323.3,72 323.3,71.9C323,71.5 323.1,70.8 323.4,70.5C323.8,70.1 324.2,70.3 324.4,70.4L324.7,70.6C324.8,70.6 324.8,70.7 324.9,70.7C325,70.7 325,70.8 325.1,70.8L325.2,70.8C325.5,70.8 325.7,70.9 326,71.1C326.2,71.2 326.4,71.3 326.6,71.4C326.7,71.5 326.9,71.6 327,71.7L327.4,71.9C328.1,72.3 328.7,72.5 329.4,72.2C329.5,72.1 329.7,72.1 329.8,72.1C330.7,72.1 331.5,72.1 332.3,72.2L332.7,72.2C333,72.2 333.4,72.3 333.7,72.5C333.8,72.6 333.9,72.6 334,72.7C334.6,73.1 335,73.7 335.2,74.6C335.3,74.9 335.4,75.2 335.5,75.5L335.6,76C335.7,76.2 335.7,76.3 335.9,76.4C336,76.4 336,76.5 336.1,76.5L336.5,76.6C337.3,76.8 338.2,77 339.1,77C339.8,76.9 340.4,77.1 341.2,77.4C341.4,77.5 341.6,77.6 341.8,77.7C342.2,77.9 342.6,78.2 343,78.5C343,78.4 342.9,78.4 342.9,78.3C342.6,77.5 342.1,77.1 341.3,76.8C340.7,76.6 340.1,76.3 339.7,75.9C338.4,74.8 337.9,73.8 337.9,72.5C337.9,71.6 337.8,71 337.4,70.4C337.2,70.1 337.1,70.1 336.9,70C335.3,69.8 334,69 333,67.6C332.1,66.4 331.3,65.1 330.7,63.8C330.3,63 330.1,62.2 329.9,61.5C329.8,61.1 329.9,60.7 330.2,60.6L330.7,60.5L330.9,60.7C331,60.7 331,60.8 331.1,60.9C331.4,61.1 331.6,61.4 331.8,61.6C332.3,62.1 332.8,62.6 333.4,63.1C333.7,63.4 334.1,63.6 334.4,63.8C335,64.1 335.7,64.3 336.4,64.4C337.5,64.5 338.6,64.8 339.5,65.3C339.6,65.4 339.7,65.4 339.8,65.5C341.2,66.3 342,67.3 342.3,68.6C342.4,69.2 342.7,69.7 343,70.3C343.1,70.6 343.3,70.7 343.5,70.8C343.6,70.9 343.8,70.9 344,70.9C344.8,71 345.5,71.2 346.2,71.6C346.4,71.7 346.5,71.8 346.7,71.9C346.2,70.4 346,68.9 346.4,67.5C346.6,66.6 346.3,65.9 345.6,65.3C344.4,64.3 343.7,63 343.5,61.6C343.4,60.8 343.4,60.1 343.5,59.4C343.6,58.8 343.6,58.2 343.3,57.7C343.2,57.5 343,57.2 342.9,57C342.7,56.7 342.6,56.4 342.4,56.2C342,55.4 341.8,54.5 341.9,53.6C341.9,53.5 341.9,53.3 342.1,53.1L342.5,52.7L343,53.2C343.1,53.3 343.1,53.3 343.2,53.5C343.4,53.7 343.6,54 343.8,54.3C344.1,54.8 344.5,55.2 345.2,55.6L345.3,55.6C345.4,55.7 345.5,55.7 345.6,55.8C345.7,55.8 345.8,55.9 345.9,55.9C347.2,56.7 348,57.8 348.3,59.2C348.3,59.4 348.4,59.6 348.4,59.8L348.4,60C348.4,60.2 348.5,60.4 348.8,60.5C348.8,60.5 348.9,60.6 349,60.6C349.4,60.8 349.9,61 350.3,61.2C350.4,61.2 350.4,61.3 350.5,61.3C351.1,61.7 351.6,62.2 351.9,62.9C352.2,63.6 352.4,64.3 352.5,65C352.6,65.4 352.6,65.7 352.6,66.1L352.6,67.6C352.6,67.8 352.7,67.9 352.8,68L353,68.1C353.6,68.5 354.1,68.9 354.7,69.4L354.7,69.3L354.9,69.5L354.9,69.4C355.1,68.8 355.3,68.2 355.5,67.6C355.6,67.1 355.7,66.7 355.7,66.1L355.7,65.6C355.7,65.5 355.7,65.4 355.6,65.2L355.6,65.1C355.5,64.8 355.4,64.4 355.2,64C354.7,63 354.5,62 354.4,61.1C354.3,60.3 354.4,59.4 354.9,58.6C355,58.4 355.1,58.3 355.2,58.1L355.3,58C355.7,57.3 356,56.5 356.5,55.8C356.9,55.3 356.9,54.6 356.9,54C356.9,53.3 356.7,52.6 356.4,52C355.7,50.6 355.8,49.2 356.6,47.8C356.9,47.3 357.2,46.8 357.7,46.2C357.8,46.1 357.8,46 357.9,46C358.1,45.7 358.3,45.5 358.3,45.2C358.4,44.1 358.6,43.6 358.8,43.3C358.9,42.9 358.9,42.4 358.9,42.1C358.9,41.7 359,41.3 359,40.8L359,40.7C359.1,40.3 359.4,40 359.8,40L360.2,40L360.3,40.1C360.5,40.3 360.6,40.5 360.6,40.7C360.7,40.9 360.7,41 360.8,41.2C360.9,41.5 361,41.9 361.2,42.2C361.6,42.9 361.9,43.8 362,44.8C362,45.1 362.1,45.3 362.1,45.6C362.2,47.2 362,48.7 361.4,50.2C361.2,50.7 361.1,51.2 361.2,51.6C361.3,51.9 361.4,52.2 361.7,52.5C361.9,52.7 362,52.9 362.2,53.1L362.3,53.3C362.6,53.7 362.9,54.2 363,54.8L363,54.9C363.2,56.9 362.9,58.5 362,60C361.8,60.3 361.7,60.6 361.5,61L361.4,61.1C361.3,61.3 361.3,61.5 361.3,61.8L361.3,61.9C361.4,62.3 361.5,62.7 361.7,63.1L362,63.6C362.1,63.8 362.3,64 362.4,64.2C362.9,65 363.2,66 363.4,66.9C363.6,67.8 363.6,68.8 363.5,69.7L363.5,69.9C364,69.3 364.7,68.7 365.5,68.2C366,67.9 366.3,67.5 366.2,66.8L366.2,66C366.2,65 366.3,64 366.8,62.9C367.2,62 367.7,61.4 368.6,61L368.9,60.9C369.2,60.8 369.5,60.7 369.8,60.6C370.3,60.4 370.5,60.2 370.5,59.6C370.6,58.3 371.1,57.2 372.2,56.3C372.6,56 372.9,55.8 373.3,55.6C374.1,55.2 374.6,54.7 374.9,54.2C375.1,53.9 375.3,53.7 375.5,53.4C375.6,53.3 375.8,53.1 375.9,53L376.3,52.7L376.6,53.1C376.7,53.2 376.7,53.3 376.7,53.4L376.7,53.5C376.8,54.5 376.6,55.5 376,56.5L375.9,56.7C375.7,57.1 375.5,57.4 375.3,57.8C375.2,58.1 375,58.6 375.1,59.1C375.2,59.3 375.3,59.6 375.2,59.9L375.2,60.7C375.2,62.5 374.4,64.1 372.9,65.4C372.2,66 372,66.6 372.1,67.5L372.1,67.7C372.1,67.8 372.1,67.9 372.2,68C372.4,69.4 372.3,70.7 371.8,72C372.6,71.5 373.5,71.1 374.5,71C374.9,71 375.2,70.8 375.5,70.3C375.9,69.6 376.2,68.9 376.3,68.3C376.5,67.4 377,66.6 377.9,66C379.1,65.1 380.5,64.6 382.1,64.4C383.2,64.3 384.3,63.8 385.2,63.1C385.9,62.6 386.5,62 387,61.4L387.3,61.1C387.4,61 387.6,60.8 387.7,60.7L388.3,60.3L388.6,60.9L388.7,61.1C388.7,61.4 388.7,61.6 388.6,62C388,64.1 386.9,66.1 385.2,68.2C385.1,68.3 385,68.5 384.8,68.6C383.8,69.5 382.7,70 381.5,70.2C381.4,70.2 381.3,70.2 381.2,70.5C380.9,71.1 380.7,71.7 380.7,72.3C380.7,73.6 380.3,74.7 379.4,75.6C378.8,76.2 378,76.7 377.2,77C376.5,77.2 376.1,77.6 375.8,78.3C375.7,78.4 375.7,78.5 375.6,78.6C375.9,78.4 376.2,78.1 376.6,77.9C377.4,77.4 378.2,77.1 379,77.2C380,77.2 381,77 382,76.9C382.7,76.8 383,76.5 383.1,75.9C383.2,75.3 383.4,74.8 383.6,74.4C384.2,73.2 385.1,72.6 386.3,72.6L387.9,72.6C388.5,72.6 389.2,72.6 389.8,72.8L390.1,72.8C390.2,72.8 390.3,72.7 390.4,72.7L390.5,72.7C390.9,72.6 391.3,72.5 391.5,72.2C392,71.8 392.6,71.5 393.2,71.3C393.6,71.1 393.9,71 394.3,70.8C394.7,70.6 394.9,70.6 395.2,70.7L395.3,70.8C395.5,70.9 395.6,71.2 395.7,71.5L395.7,71.7C395.7,71.9 395.6,72.2 395.4,72.5C395.2,72.7 395,72.9 394.9,73.1L394.8,73.2C394.4,73.7 394,74.2 393.5,74.6C393.3,74.8 393,75 392.8,75.2C392.5,75.4 392.3,75.6 392,75.8C391.1,76.6 390.2,77 389.1,77.1C388.1,77.2 387.5,77.7 387.2,78.7C386.9,79.6 386.4,80.6 385.5,81.4C385,81.8 384.5,82.2 384.1,82.4C383.4,82.9 382.8,83 382.1,83C381.2,82.9 380.5,83.3 380.1,83.8C380.3,83.8 380.4,83.7 380.6,83.7C381.7,83.4 382.8,83.2 384,83.1C384.7,83 385.3,83 386,83.1L386.6,83.1C387.2,83.1 387.7,82.9 388.2,82.6L388.5,82.4C388.8,82.2 389.1,82 389.4,81.8C390.1,81.3 390.8,80.9 391.9,80.5C392.3,80.4 392.8,80.3 393.2,80.4C394.3,80.6 395.3,80.7 396.3,81C396.5,81.1 396.7,81.1 396.9,81.1C397.9,81.2 399.1,81.1 400.2,80.4C400.4,80.3 400.6,80.2 400.8,80.1C401,80 401.3,80 401.5,79.9C401.7,79.8 401.9,79.9 402.2,80C402.4,80.1 402.5,80.3 402.6,80.5L402.7,80.7L402.7,80.9C402.6,81.1 402.5,81.3 402.3,81.4L402.2,81.4C401.2,82.2 400.5,82.8 399.7,83.3C398.5,84.2 397.2,84.6 395.7,84.6C394.1,84.6 393,85.3 392.2,86.5C391.5,87.7 390.4,88.7 389,89.4C388.2,89.8 387.4,90 386.6,89.8C386.4,89.7 386.1,89.7 385.9,89.6C385.8,89.6 385.6,89.5 385.5,89.5C384.1,89.1 382.8,89.4 381.7,90.2C381.3,90.5 380.9,90.8 380.5,91.1C380.8,91.3 381,91.4 381.3,91.6C381.4,91.7 381.5,91.7 381.6,91.8C382.2,92.2 382.9,92.2 383.7,91.9C384.9,91.4 386.2,91.3 387.6,91.5C388.7,91.6 390,91.9 391.3,92.6C391.7,92.8 392,93 392.3,93.3C392.5,93.4 392.7,93.6 392.9,93.7C393,93.7 393,93.8 393.1,93.8C393.8,94.2 394.7,94.4 395.6,93.8C396.4,93.2 397.3,92.8 398.1,92.6C398.8,92.3 399.5,92.3 400.3,92.5C400.9,92.7 401.7,92.9 402.4,93.3C402.7,93.5 403,93.7 403.3,94C403.4,94.1 403.6,94.2 403.7,94.3C403.8,94.4 403.9,94.4 403.9,94.5C404,94.5 404,94.6 404.1,94.6C404.3,94.7 404.5,94.8 404.7,94.8C406.3,94.9 407.8,95.1 409.2,95.5L410.2,95.8L409.1,95.9ZM359.3,44L359.2,44.1C359.1,44.3 358.9,44.8 358.8,45.7C358.8,46.3 358.4,46.8 358.1,47.1C358.1,47.2 358,47.2 358,47.3C357.6,47.9 357.2,48.3 357,48.8C356.4,49.8 356.3,50.8 356.8,51.9C357.2,52.7 357.4,53.5 357.4,54.4C357.4,55.2 357.4,56 356.8,56.8C356.4,57.4 356,58.1 355.7,58.8L355.7,58.9C355.6,59.1 355.5,59.3 355.4,59.5C355.1,60.1 355,60.7 355.1,61.3C355.2,62.1 355.4,63 355.8,63.9C356.1,64.4 356.2,64.8 356.3,65.2L356.3,65.3C356.4,65.5 356.4,65.8 356.4,66.1L356.4,66.6C356.4,67.1 356.3,67.7 356.1,68.2C355.9,68.8 355.7,69.4 355.5,70L354.8,72.2L354.6,71.9L354,71C353.4,70.2 352.7,69.7 351.9,69.2L351.7,69.1C351.3,68.8 351.1,68.4 351,67.9L351,66.3C351,66 351,65.7 350.9,65.4C350.8,64.8 350.6,64.2 350.4,63.6C350.2,63.1 349.9,62.8 349.5,62.5C349.5,62.5 349.4,62.5 349.4,62.4C348.9,62.2 348.5,62 348.1,61.8C348,61.8 347.9,61.7 347.8,61.7C347.3,61.4 346.9,61 346.9,60.4L346.9,59.6C346.7,58.5 346.1,57.6 345.1,57.1C345,57.1 345,57 344.9,57C344.8,56.9 344.6,56.9 344.5,56.8L344.4,56.8C343.9,56.5 343.5,56.2 343.1,55.8C343.1,55.8 343.1,55.9 343.2,55.9C343.3,56.2 343.5,56.4 343.6,56.7C343.7,56.9 343.9,57.2 344,57.5C344.4,58.2 344.5,59 344.3,59.9C344.2,60.5 344.2,61.1 344.3,61.7C344.5,62.9 345.1,63.9 346,64.7C347,65.6 347.4,66.7 347.2,68C346.9,69.4 347.1,70.7 347.7,72.3C347.8,72.5 347.8,72.6 347.9,72.8L348.3,73.9L347.4,74C347.1,74 346.9,74 346.8,73.9C346.6,73.8 346.5,73.7 346.4,73.6C346.1,73.4 345.8,73.1 345.5,73C345,72.7 344.4,72.5 343.7,72.5C343.4,72.5 343.1,72.4 342.8,72.2C342.4,72 342.1,71.7 341.8,71.2C341.4,70.5 341.1,69.9 341,69.2C340.8,68.2 340.2,67.4 339.1,66.8C339,66.7 338.9,66.7 338.8,66.6C338,66.2 337.1,65.9 336.1,65.8C335.3,65.7 334.5,65.5 333.7,65.1C333.3,64.9 332.8,64.6 332.5,64.3C332.1,64 331.7,63.7 331.4,63.3C331.5,63.5 331.5,63.6 331.6,63.8C332.2,65 332.9,66.2 333.8,67.4C334.6,68.5 335.7,69.2 336.9,69.4C337.5,69.5 337.9,69.8 338.2,70.3C338.7,71 338.9,71.9 338.9,73C338.9,73.9 339.3,74.7 340.3,75.6C340.6,75.9 341,76.1 341.5,76.3C342.6,76.7 343.4,77.4 343.8,78.4C343.9,78.6 344,78.8 344.1,79C344.2,79.1 344.2,79.3 344.3,79.4C344.4,79.7 344.6,80 344.6,80.3L344.9,82.3L344.5,81.9L343,80.6C342.8,80.4 342.6,80.2 342.3,80C341.8,79.6 341.4,79.3 341,79.1C340.9,79 340.7,78.9 340.5,78.9C339.9,78.7 339.4,78.6 338.9,78.6C337.9,78.7 336.9,78.4 336,78.2L335.6,78.1C335.4,78.1 335.2,78 335.1,77.9C334.7,77.7 334.4,77.3 334.2,76.9L334.1,76.4C334,76.1 333.9,75.8 333.8,75.5C333.6,74.9 333.3,74.5 333,74.2C332.9,74.1 332.9,74.1 332.8,74.1C332.6,74 332.5,74 332.3,73.9L331.9,73.9C331.1,73.9 330.3,73.8 329.5,73.8L329.5,73.6L329.5,73.8C328.2,74.3 327.2,73.7 326.6,73.4L326.2,73.2C326,73.1 325.9,73 325.7,72.9C325.5,72.8 325.4,72.7 325.3,72.6C325.1,72.5 325,72.5 324.8,72.4C324.7,72.4 324.6,72.3 324.5,72.3C324.5,72.4 324.6,72.4 324.6,72.5C324.9,72.9 325.3,73.4 325.7,73.7C326.5,74.3 327.3,75 328.1,75.6C328.3,75.8 328.6,75.9 329,75.9C329.3,75.9 329.7,76 330,76.1C331.1,76.3 331.9,77 332.3,78.1C332.4,78.3 332.5,78.6 332.6,78.8L332.7,79.1C333.2,80.4 334.3,81.1 335.5,81.8C335.7,81.9 335.9,81.9 336.2,81.9C336.7,81.9 337.2,81.9 337.7,82C338.2,82.1 338.5,82.3 338.8,82.6C339.5,83.2 340,83.6 340.7,83.7C340.9,83.7 341.3,83.9 341.4,84.5L342,84.7L341.4,84.7L341.4,85.1L340.8,85.3C340.3,85.4 339.9,85.4 339.5,85.3C339.1,85.2 338.8,85.1 338.5,85C337.6,84.6 336.5,84.5 335.5,84.4L334.9,84.4C333.5,84.3 332.3,84.2 331.1,84C330.8,84 330.4,83.8 330.1,83.7C329.9,83.6 329.8,83.5 329.6,83.4C329.2,83.1 328.8,82.8 328.4,82.5L328.2,82.4C328,82.2 327.8,82.1 327.5,82L327.4,81.9C326.4,81.4 325.5,81.3 324.6,81.5C324,81.7 323.3,81.8 322.6,81.9C321.5,82.1 319.9,82.3 318.3,81.5C318.8,81.9 319.3,82.3 319.8,82.6C320.6,83.1 321.5,83.4 322.6,83.4C323.3,83.4 324,83.5 324.6,83.7C325.7,84.1 326.6,84.8 327.2,85.8C327.8,86.8 328.7,87.6 329.8,88.2C330.5,88.6 331.2,88.7 331.9,88.5L332.2,88.5C333.6,87.9 335,88.1 336.1,88.5C336.5,88.6 336.8,88.8 337.1,89C337.8,89.5 338.3,90 339.1,90.4L340.2,91L339.1,91.7C338.9,91.8 338.6,92 338.4,92.2C337.7,92.7 336.8,93.4 335.6,93.3C335.3,93.3 334.9,93.2 334.5,93.1C333,92.5 331.5,92.6 330.2,92.9C328.9,93.1 327.8,93.6 326.9,94.3C326.3,94.8 325.6,95.2 324.6,95.3C323.8,95.4 323.2,95.3 322.6,95C322.5,95 322.4,94.9 322.3,94.8C322.1,94.7 321.9,94.5 321.6,94.4C321.2,94.2 320.7,94 320.4,93.8C319.6,93.5 318.9,93.4 318.1,93.7C317.3,94 316.5,94.3 315.8,94.9C315.1,95.6 314.1,95.9 313,95.9C312.4,95.9 311.8,96 311.2,96.1C311.2,96.1 311.3,96.1 311.3,96.2C311.5,96.3 311.7,96.4 311.9,96.5C313.3,97.1 314.5,97.4 315.7,97.4C316.3,97.4 316.9,97.3 317.6,97.1L317.9,97C318.6,96.9 319.2,96.8 319.9,96.8C320.8,96.8 321.6,97.1 322.4,97.8C322.6,98 322.8,98.1 323.1,98.3C324,98.9 325.1,99 326.4,98.7C327.3,98.5 328,98.3 328.7,98C330.2,97.3 331.6,97.7 332.7,98.1L333.4,98.4C334.3,98.7 335.2,99.1 336.2,99.5C336.5,99.7 337,99.6 337.5,99.6L337.8,99.6C338.2,99.6 338.6,99.5 339.1,99.3L341.4,98.7L340.1,100.4C339.4,101.3 338.6,102.1 337.3,102.3L336.7,102.4C336,102.5 335.3,102.6 334.6,102.6C334.1,102.6 333.7,102.9 333.2,103.4C332.5,104 331.8,104.7 331.5,105.7C331.3,106.3 330.9,106.8 330.2,107.1C329.7,107.4 328.9,107.6 328.1,107.6C327.1,107.6 326.2,107.9 325.4,108.5C324.5,109.2 323.5,110 322.9,111.1C322.8,111.2 322.7,111.4 322.6,111.5L322,111.9C321.6,112.2 321.1,112.6 320.7,112.9C321,112.9 321.3,112.9 321.6,113C322.3,113.1 323.1,113 324,112.6C324.3,112.5 324.6,112.2 324.8,111.9C325.7,110.9 326.9,110.5 328.1,111C328.3,111.1 328.6,111.1 329,111.1L330.4,111.1C331.4,111.1 332.2,110.8 333,110C333.4,109.6 333.9,109.1 334.3,108.6L334.5,108.4C335,107.9 335.5,107.6 336.2,107.5C337.3,107.3 338.4,107.1 339.4,106.9L339.5,106.9C340.3,106.7 341.1,106.4 341.8,106L343.2,105.3L342.9,106.8C342.7,107.6 342.4,108.3 341.9,108.9C341.1,109.8 340.3,110.4 339.3,110.7C338.3,111 337.5,111.7 336.9,112.8C336.6,113.3 336.4,113.9 336.2,114.4C336,114.8 335.9,115.3 335.7,115.7C335.3,116.6 334.5,117.2 333.6,117.4C332.9,117.6 332.4,117.9 332.1,118.4C331.1,119.9 330.2,121.4 329.7,123C329.6,123.2 329.6,123.3 329.5,123.5C329.9,123.4 330.2,123.3 330.5,123.1C331.2,122.8 331.8,122.2 332.3,121.7C332.7,121.3 333.1,120.9 333.6,120.6C333.9,120.4 334.2,120.1 334.5,119.8C335,119.3 335.7,119.1 336.4,119C337.7,118.9 338.8,118.4 340,117.3C340.3,117 340.5,116.6 340.8,116.2C341.1,115.7 341.4,115.1 341.9,114.6C342.5,114 343.1,113.6 343.7,113.4L343.8,113.4C344.5,113.1 345.2,112.8 345.9,112.4C346.3,112.1 346.6,111.9 346.9,111.6C347,111.5 347.1,111.4 347.3,111.2L348,110.5L348.7,111.3L348.7,111.5C348.8,112.5 348.4,113.2 348.1,113.6L347.7,114.2C347.5,114.6 347.2,114.9 347,115.3C346.4,116.2 346.1,117.2 346.3,118.3C346.4,118.8 346.3,119.3 346.3,119.7L346.3,121C346.5,122 346.1,122.8 345.3,123.4C345.1,123.5 345,123.6 344.8,123.7C344.6,123.8 344.4,124 344.2,124.1C343.2,124.9 342.8,125.8 342.8,127L342.8,127.4C342.8,127.8 342.8,128.2 342.9,128.5C343,129.1 342.9,129.7 342.6,130.2C342.5,130.4 342.3,130.7 342.2,130.9L342,131.3C341.8,131.7 341.7,132 341.6,132.4C342.7,131.5 343.5,130.7 344.1,129.8C344.4,129.4 344.6,129 344.6,128.5C344.8,127.7 345,127 345.2,126.3C345.4,125.9 345.7,125.6 346.1,125.4C347,125.1 347.9,124.7 348.7,124.2C349.6,123.7 350.1,123.1 350.1,122L350.1,120.2C350.1,119.1 350.6,118.3 351.6,117.8C352.4,117.4 353.2,117 353.8,116.3L354.9,114.9L355.1,116.7L355.1,117.9C355.1,118.5 355.2,119.2 355.4,119.8C355.5,120 355.5,120.3 355.6,120.5L355.6,120.6C355.7,120.9 355.8,121.3 355.9,121.6C356.1,122.2 356.3,122.7 356.6,123.2C356.8,123.6 357,123.9 357.1,124.4C357.4,125.7 357.1,126.8 356.3,127.7C355.4,128.7 355.3,129.8 356,131.2C356.4,131.9 356.8,132.6 357.3,133.1C357.6,133.4 357.9,133.8 358.1,134.2C358.5,135 358.5,135.8 358.2,136.6C357.9,137.2 357.7,137.8 357.7,138.4C357.7,138.7 357.7,138.9 357.8,139.1C357.9,139.4 358.1,139.7 358.2,140.1L358.4,140.6L358.4,140.7C358.5,141.6 359,142.4 359.4,142.8L359.5,142.9C359.5,143 359.5,143 359.6,143.1C359.7,142.8 359.7,142.4 359.7,142L359.7,141.5C359.7,141.1 359.7,140.7 359.6,140.2L359.6,140C359.6,139.2 359.7,138.5 360.1,137.9C360.2,137.8 360.2,137.7 360.3,137.5C360.8,136.8 361.4,135.9 361.6,135C361.7,134.8 361.7,134.6 361.8,134.3L361.8,134.2C361.8,134 361.9,133.8 361.9,133.6C362,133.2 362,132.7 361.9,132.3C361.8,132 361.8,131.7 361.6,131.5C361.4,131.1 361.2,130.8 361.1,130.4C360.9,130.1 360.8,129.8 360.8,129.6C360.7,129.1 360.9,128.7 361.3,128.1C361.8,127.5 362.4,126.6 362.9,125.7C363.1,125.3 363.3,124.9 363.4,124.4C363.5,124 363.5,123.6 363.5,123.2C363.5,122.9 363.4,122.7 363.3,122.4C363.1,121.8 362.8,121.1 362.3,120.3C362.1,119.9 361.9,119.4 361.7,118.9C361.7,118.8 361.6,118.7 361.6,118.6C361.5,117.9 361.6,117.3 362.1,116.8L362.2,116.7C362.3,116.6 362.4,116.5 362.5,116.4C363,115.9 363.3,115.5 363.6,115.1L364,114.4L364.6,114.9C364.9,115.1 365,115.4 365.1,115.6L365.1,115.7C365.4,116.5 366,117.1 366.8,117.5C366.9,117.6 367,117.6 367.1,117.7L367.4,117.9C367.5,117.9 367.5,118 367.6,118C368.5,118.4 368.9,119.2 368.9,120.2L368.9,122.1C368.9,122.4 368.9,122.6 369,122.8C369.1,123.5 369.5,124 370.2,124.4C371.1,124.8 372,125.3 372.9,125.6C373.4,125.8 373.7,126.1 373.9,126.5C374.2,127.2 374.4,127.9 374.5,128.5C374.6,129.2 375,129.9 375.6,130.6C376.2,131.3 376.9,131.9 377.6,132.5C377.3,131.6 377,130.9 376.6,130.2C376.5,130 376.4,129.8 376.4,129.5C376.3,129.1 376.4,128.7 376.4,128.4C376.5,128 376.5,127.7 376.5,127.2L376.5,126.5C376.4,125.6 375.9,124.8 375.1,124.2C374.9,124 374.6,123.8 374.3,123.6L374,123.4C373.5,123 373.2,122.5 373.1,122L373.1,119.6C373.1,119.1 373.1,118.6 373.2,118.1L373.2,117.2C373.1,116.7 372.9,116.2 372.6,115.7C372.2,115.1 371.8,114.4 371.3,113.8C371,113.4 370.8,112.9 370.7,112.4L370.7,111L371.5,111.1C372,111.1 372.3,111.5 372.4,111.7C372.8,112.2 373.4,112.6 374.1,113C374.7,113.3 375.2,113.5 375.7,113.7C376.6,114 377.4,114.7 378.1,115.7C378.2,115.9 378.4,116.1 378.5,116.4C379.3,118.1 380.8,119 382.8,119.3C383.7,119.4 384.4,119.8 385.2,120.4C385.8,120.9 386.3,121.4 386.9,121.9C387.3,122.2 387.6,122.6 388,122.9C388.5,123.3 389.1,123.6 389.9,123.8C389.2,122.1 388.4,120.3 387.2,118.6C387,118.3 386.7,118.1 386.4,117.9C386.2,117.8 386,117.7 385.8,117.7C385.5,117.6 385.1,117.5 384.9,117.3C384.3,117 383.8,116.5 383.6,115.9C383.4,115.5 383.2,115.1 383.1,114.6C382.8,113.8 382.3,112.9 381.7,112C381.5,111.7 381.2,111.5 380.9,111.3C380.8,111.3 380.7,111.2 380.6,111.2C380.4,111.1 380.3,111.1 380.1,111C379.9,110.9 379.8,110.9 379.6,110.8C379.4,110.7 379.2,110.6 379,110.5C377.8,109.9 376.9,108.9 376.4,107.6C376.4,107.5 376.3,107.4 376.3,107.3L376.1,106.6L376.6,106.3C377.1,106 377.5,106.3 377.6,106.4C378.6,106.9 379.8,107.2 380.9,107.4L381.5,107.5C382,107.6 382.6,107.7 383.1,107.8C383.6,107.9 384.1,108.2 384.5,108.6L384.9,109C385.3,109.4 385.7,109.8 386.1,110.2C386.9,110.9 387.7,111.3 388.6,111.3L389.4,111.3C389.8,111.3 390.2,111.3 390.7,111.2C390.8,111.2 391,111.2 391.1,111.1C392.3,110.7 393.5,111.1 394.3,112C395.1,113 396.2,113.3 397.8,113.2L398.5,113.2C398.4,113.1 398.2,113 398.1,112.9C397.8,112.7 397.5,112.5 397.3,112.2C397.1,112 396.9,111.8 396.6,111.6C396.4,111.5 396.3,111.3 396.2,111.1L396.2,111C395.7,110.2 395.1,109.5 394.3,108.9C394.1,108.8 393.9,108.6 393.6,108.4C393.4,108.2 393.2,108.1 393,108C392.5,107.7 391.8,107.6 391,107.6C390.1,107.6 389.3,107.3 388.8,107L388.6,106.9C388.1,106.6 387.8,106.3 387.7,105.8C387.3,104.5 386.3,103.7 385.4,102.9C385.3,102.8 385.2,102.8 385.2,102.8C385,102.7 384.7,102.6 384.4,102.6C383.4,102.5 382.5,102.4 381.7,102.3C381.3,102.2 380.9,102.1 380.5,101.9C380,101.6 379.5,101.2 379,100.5L378,99L379.8,99.4C380,99.4 380.2,99.5 380.4,99.5C380.7,99.6 381,99.6 381.3,99.7C382.2,99.8 382.8,99.7 383.4,99.4C384.6,98.9 386,98.3 387.5,97.9C388.2,97.7 388.9,97.7 389.6,98C389.9,98.1 390.1,98.2 390.4,98.3C390.9,98.5 391.5,98.7 392.1,98.8C393.9,99.3 395.3,99 396.5,97.9C397.7,96.8 399.1,96.9 400.3,97.1C400.7,97.2 401,97.2 401.4,97.3C401.7,97.4 402.1,97.4 402.4,97.5C403.6,97.7 404.8,97.5 406.3,96.9C406.6,96.8 407,96.6 407.3,96.4C407.3,96.4 407.4,96.4 407.4,96.3C406.6,96.2 405.8,96.1 404.9,96.1C404.5,96.1 404.1,96 403.8,95.8C403.7,95.7 403.6,95.7 403.5,95.6C403.4,95.5 403.4,95.5 403.3,95.4C403.1,95.3 402.9,95.1 402.8,95C402.6,94.8 402.3,94.6 402.1,94.5C401.5,94.2 400.8,94 400.3,93.8C399.8,93.7 399.3,93.7 398.8,93.9C398.1,94.2 397.3,94.5 396.5,95C394.9,96.1 393.3,95.4 392.8,95.1C392.7,95.1 392.6,95 392.5,95C392.3,94.9 392,94.7 391.8,94.5C391.5,94.3 391.3,94.1 390.9,93.9C389.8,93.3 388.6,93.1 387.6,93C386.3,92.8 385.2,93 384.2,93.3C383.1,93.7 382.1,93.7 381.2,93.1C381.1,93 380.9,92.9 380.8,92.8C380.5,92.6 380.3,92.4 380,92.2L379.3,91.8L379.3,91.4C379.3,90.8 379.8,90.6 380,90.5C380.4,90.3 380.8,89.9 381.2,89.6C382.6,88.5 384.2,88.2 386,88.7C386.2,88.7 386.3,88.8 386.5,88.8C386.7,88.9 386.9,88.9 387.2,89C387.7,89.1 388.3,89 388.8,88.7C390,88.1 390.9,87.2 391.5,86.2C392.5,84.6 394,83.8 395.9,83.8C397.2,83.8 398.2,83.4 399.2,82.7C399.5,82.5 399.9,82.2 400.3,81.9C399.1,82.4 397.9,82.4 397,82.4C396.8,82.4 396.5,82.4 396.2,82.3C395.3,82 394.4,81.9 393.3,81.7C393,81.7 392.8,81.7 392.5,81.8C391.6,82.1 390.9,82.4 390.4,82.9C390.1,83.1 389.8,83.4 389.5,83.6L389.2,83.8C388.6,84.3 387.8,84.5 386.9,84.5L384.4,84.5C383.3,84.6 382.2,84.9 381.1,85.1L381,85.1C380.8,85.2 380.5,85.2 380.3,85.3L377.8,85.9L378.7,84.4C379.3,83.4 380.4,82.1 382.4,82.3C382.8,82.3 383.2,82.2 383.7,81.9C384.1,81.6 384.5,81.3 385,80.9C385.7,80.3 386.1,79.4 386.3,78.7C386.8,77.3 387.8,76.5 389.2,76.4C390,76.3 390.8,76 391.5,75.4C391.8,75.2 392.1,74.9 392.3,74.7C392.5,74.5 392.8,74.4 393,74.2C393.4,73.8 393.8,73.4 394.1,72.9C394.2,72.8 394.3,72.7 394.4,72.6C394.2,72.7 394.1,72.7 393.9,72.8C393.4,73 392.9,73.2 392.5,73.5C392.1,73.9 391.6,74 391.1,74.2C391,74.2 390.9,74.3 390.8,74.3C390.4,74.4 390.1,74.4 389.7,74.3C389.2,74.1 388.7,74.2 388.2,74.2L386.5,74.2C385.7,74.2 385.2,74.6 384.8,75.3C384.6,75.6 384.5,76.1 384.4,76.6C384.2,77.7 383.5,78.3 382.4,78.5C381.4,78.7 380.3,78.9 379.2,78.9C378.6,78.9 378.1,79.1 377.4,79.5C376.6,79.9 375.9,80.6 375.2,81.3L374.7,81.8L374.4,81.2L374.4,81.1L374.1,80.5L374.2,80.3C374.3,80.1 374.3,79.9 374.4,79.8L374.4,79.7C374.5,79.5 374.6,79.3 374.7,79.1C374.8,78.8 375,78.6 375.1,78.3C375.5,77.4 376.2,76.8 377.2,76.4C377.9,76.2 378.5,75.8 379,75.3C379.7,74.6 380,73.8 380,72.8C380,71.9 380.2,71.2 380.7,70.4C381,69.9 381.4,69.7 381.9,69.6C382.8,69.5 383.7,69.1 384.5,68.3C384.6,68.2 384.7,68.2 384.7,68.1C385.9,66.6 386.8,65 387.4,63.5C387,63.9 386.6,64.2 386.2,64.5C385.1,65.4 383.9,65.9 382.6,66C381.1,66.2 379.9,66.6 378.9,67.4C378.3,67.9 377.9,68.4 377.7,69.1C377.5,69.9 377.2,70.6 376.8,71.4C376.4,72.1 375.8,72.5 375,72.6C373.9,72.7 373,73.1 372.2,73.8C372.1,73.9 371.8,74.2 371.3,74.2L370.3,74.2L370.8,72.9C370.9,72.6 371,72.4 371.1,72.2C371.6,71.1 371.7,70 371.5,68.7L371.5,68.2C371.3,67 371.7,65.9 372.6,65.1C373.8,64 374.5,62.7 374.5,61.2L374.5,60.4C374.5,60.3 374.5,60.1 374.4,60L374.4,59.8C374.3,59 374.5,58.3 374.7,57.8C374.9,57.3 375.1,56.9 375.4,56.5L375.5,56.4C375.6,56.2 375.7,56.1 375.7,55.9C375.3,56.4 374.8,56.8 374,57.1C373.7,57.3 373.4,57.4 373.1,57.6C372.3,58.2 371.9,59.1 371.8,60.1C371.8,61.2 371.3,61.8 370.3,62.1C370.1,62.2 369.8,62.3 369.5,62.4L369.2,62.5C368.7,62.7 368.3,63.2 368,63.8C367.6,64.8 367.4,65.7 367.5,66.5L367.5,67.2C367.6,68.3 367.2,69.1 366.3,69.6C365.4,70.1 364.7,70.9 364.2,71.5L364.2,71.6C364.1,71.8 363.9,72 363.5,72.2L362.4,72.7L362.6,70.8C362.6,70.6 362.6,70.4 362.7,70.2L362.4,69.9L362.7,70.1C362.8,69.3 362.8,68.4 362.6,67.7C362.4,66.9 362.1,66.1 361.7,65.3C361.6,65.1 361.5,64.9 361.3,64.6L361,64.1C360.7,63.6 360.5,63.1 360.4,62.6L360.4,62.4C360.3,61.9 360.4,61.5 360.6,61L360.7,60.8C360.9,60.5 361,60.1 361.2,59.8C361.9,58.6 362.2,57.1 362,55.4L362,55.3C361.9,55 361.8,54.7 361.6,54.4L361.4,54.2C361.3,54 361.2,53.9 361,53.8C360.5,53.4 360.3,52.9 360.2,52.3C360.1,51.7 360.1,51 360.4,50.3C360.9,48.9 361.1,47.5 361,46.1C361,45.9 361,45.6 360.9,45.4C360.8,44.5 360.5,43.8 360.2,43.2C360.1,43 360,42.8 359.9,42.7C359.4,42.9 359.4,43.4 359.3,44Z" style="fill:rgb(67,37,101);fill-rule:nonzero;"/>
                    </g>
                    <g transform="matrix(4.16667,0,0,4.16667,1601.32,-1987.51)">
                        <rect x="37.5" y="172.677" width="300" height="45.726" style="fill-opacity:0;"/>
                    </g>
                </g>
            </g>
        </g>
    </g>
</svg>
