<?xml version="1.0" encoding="UTF-8" standalone="no"?>
<!DOCTYPE svg PUBLIC "-//W3C//DTD SVG 1.1//EN" "http://www.w3.org/Graphics/SVG/1.1/DTD/svg11.dtd">
<svg width="100%" height="100%" viewBox="0 0 1251 668" version="1.1" xmlns="http://www.w3.org/2000/svg" xmlns:xlink="http://www.w3.org/1999/xlink" xml:space="preserve" xmlns:serif="http://www.serif.com/" style="fill-rule:evenodd;clip-rule:evenodd;stroke-linejoin:round;stroke-miterlimit:2;">
    <g transform="matrix(1,0,0,1,0,-961)">
        <g id="アートボード3" transform="matrix(1,0,0,1,0.60572,535.887)">
            <rect x="-0.606" y="425.113" width="1250.06" height="667.865" style="fill:none;"/>
            <clipPath id="_clip1">
                <rect x="-0.606" y="425.113" width="1250.06" height="667.865"/>
            </clipPath>
            <g clip-path="url(#_clip1)">
                <g transform="matrix(1,0,0,1,-2124.63,717.871)">
                    <g transform="matrix(1.35516,0,0,-1.35595,1781.31,943.783)">
                        <path d="M710.301,529.707L693.766,546.152L710.215,562.684L726.742,546.238L710.301,529.707ZM1013.21,547.609L728.977,547.609L710.199,566.289L691.629,547.609L415.605,547.609L415.605,544.285L692.016,544.285L710.301,526.094L728.406,544.285L1013.21,544.285L1013.21,547.609" style="fill:rgb(35,31,32);fill-rule:nonzero;"/>
                    </g>
                    <g transform="matrix(1.35516,0,0,-1.35595,1781.31,1062.61)">
                        <path d="M1106.62,542.203C1106.66,544.184 1106.52,546.187 1106.17,548.152C1106.05,548.883 1105.87,549.594 1105.68,550.312C1125.48,548.953 1135.71,559.187 1132.54,577.332C1133.27,577.164 1133.99,576.984 1134.72,576.859C1136.69,576.52 1138.69,576.375 1140.67,576.441C1146.05,552.371 1131.2,537.426 1106.62,542.203ZM322.715,548.152C322.367,546.187 322.234,544.184 322.273,542.203C297.691,537.426 282.848,552.371 288.223,576.441C290.207,576.375 292.211,576.52 294.172,576.859C294.898,576.984 295.621,577.164 296.344,577.332C293.18,559.187 303.406,548.953 323.215,550.312C323.02,549.594 322.848,548.883 322.715,548.152ZM1142.52,626.867C1132.46,627.289 1121.21,618.086 1124.28,607.062C1126.21,600.133 1133.68,595.035 1140.59,593.648C1138.85,593.992 1132.86,596.859 1131.17,599.633C1129.87,601.781 1128.83,604.207 1128.85,606.766C1128.9,611.328 1130.57,616.023 1134.01,619.164C1141.08,625.594 1152.71,626.242 1158.3,617.652C1169.85,599.914 1152.52,576.715 1132.41,579.301C1122.46,580.582 1115.27,585.469 1110.73,595.297C1106.52,604.398 1106.33,614.684 1110.09,623.992C1117.16,641.465 1134.81,654.832 1152.94,650.738C1154.38,650.406 1155.89,649.57 1155.89,649.57L1155.89,673.074L1150.99,673.074L1150.99,653.281C1150.97,653.285 1150.94,653.297 1150.92,653.297C1138.27,655.023 1125.03,651.355 1115.72,642.395C1100.36,627.625 1096.68,600.871 1114.96,586.598C1118.92,583.516 1123.65,580.543 1128.57,578.633C1128.3,578.437 1128.53,578.437 1128.79,577.543C1134.11,559.395 1121.77,549.457 1105.46,554.07C1104.56,554.324 1104.56,554.566 1104.37,554.297C1102.44,559.191 1099.44,563.922 1096.36,567.867C1082.01,586.078 1055.27,582.289 1040.55,566.871C1031.63,557.52 1028.01,544.27 1029.8,531.621C1029.8,531.609 1029.82,531.582 1029.82,531.57L780.262,531.555C772.309,541.027 759.203,549.637 747.074,549.898C732.926,550.184 718.715,543.074 711.551,531.543C710.574,529.984 709.711,528.359 709.016,526.641C708.445,525.227 708.012,523.754 707.648,522.242C707.297,523.754 706.863,525.227 706.285,526.641C705.598,528.359 704.727,529.977 703.754,531.543C696.578,543.074 682.359,550.18 668.199,549.871C656.066,549.605 642.891,541.016 634.949,531.543C634.949,531.543 400.723,531.57 399.074,531.57C399.074,531.582 399.09,531.609 399.102,531.621C400.875,544.27 397.266,557.52 388.34,566.871C373.625,582.289 346.891,586.078 332.535,567.867C329.449,563.922 326.453,559.191 324.523,554.297C324.328,554.566 324.324,554.324 323.43,554.07C307.121,549.457 294.785,559.395 300.098,577.543C300.359,578.437 300.598,578.437 300.324,578.633C305.242,580.543 309.984,583.516 313.934,586.598C332.211,600.871 328.527,627.625 313.172,642.395C303.859,651.355 290.625,655.023 277.969,653.297C277.949,653.297 277.93,653.285 277.91,653.281L277.91,673.074L273,673.074L273,649.57C273,649.57 274.516,650.406 275.945,650.738C294.078,654.832 311.73,641.465 318.797,623.992C322.555,614.684 322.379,604.398 318.168,595.297C313.621,585.469 306.43,580.582 296.48,579.301C276.379,576.715 259.039,599.914 270.598,617.652C276.18,626.242 287.816,625.594 294.879,619.164C298.328,616.023 300.004,611.328 300.039,606.766C300.063,604.207 299.016,601.781 297.719,599.633C296.043,596.859 290.043,593.992 288.305,593.648C295.211,595.035 302.684,600.133 304.613,607.062C307.684,618.086 296.434,627.289 286.383,626.867C279.758,626.594 272.516,623.539 268.102,618.77C260.508,610.57 260.902,596.305 266.797,587.645C270.82,581.734 277.059,578.152 283.82,576.914C283.773,576.844 283.703,576.797 283.691,576.715C278.934,547.254 299.195,533.211 322.535,537.672C322.598,537.687 322.664,537.75 322.734,537.781C323.941,531.031 327.5,524.773 333.391,520.734C342.039,514.789 356.301,514.352 364.523,521.898C369.305,526.289 372.41,533.52 372.695,540.152C373.152,550.195 364.004,561.488 352.973,558.449C346.031,556.555 340.898,549.113 339.484,542.203C339.84,543.941 342.719,549.934 345.52,551.598C347.656,552.887 350.098,553.926 352.648,553.906C357.211,553.824 361.906,552.133 365.023,548.676C371.422,541.59 372.031,529.953 363.418,524.402C345.633,512.922 322.504,530.344 325.172,550.453C326.484,560.387 331.406,567.555 341.258,572.062C350.371,576.246 360.656,576.375 369.953,572.574C387.398,565.43 400.695,547.73 396.52,529.609C396.195,528.18 395.348,526.66 395.348,526.66C395.348,526.66 599.281,526.625 634.594,526.625L634.785,526.441C634.785,526.441 634.812,526.539 634.844,526.625C634.969,527.051 635.395,528.32 636.035,529.359C636.379,529.895 636.77,530.402 637.145,530.914C637.156,530.93 637.156,530.934 637.168,530.957C637.305,531.145 637.434,531.348 637.582,531.543C648.062,545.352 668.688,547.836 685.211,540.875C690.285,538.73 694.695,535.523 698.25,531.543C699.613,530.012 700.871,528.383 701.965,526.641C703.211,524.617 704.277,522.469 705.121,520.195C706.016,517.781 706.586,515.465 706.879,513.219C706.996,512.355 707.422,508.203 707.66,506.941C707.898,508.234 708.312,512.332 708.422,513.137C708.715,515.402 709.285,517.742 710.191,520.18C711.023,522.461 712.094,524.617 713.348,526.641C714.43,528.383 715.688,530.012 717.047,531.543C720.59,535.531 724.996,538.738 730.062,540.875C746.605,547.867 767.246,545.402 777.734,531.555C777.855,531.387 777.973,531.215 778.094,531.051C778.102,531.035 778.105,531.031 778.117,531.02C778.5,530.48 778.898,529.977 779.258,529.414C779.953,528.32 780.379,526.965 780.477,526.641C780.488,526.594 780.52,526.504 780.52,526.504C780.52,526.504 780.566,526.562 780.645,526.641C785.254,526.641 1033.55,526.66 1033.55,526.66C1033.55,526.66 1032.7,528.18 1032.38,529.609C1028.19,547.73 1041.49,565.43 1058.94,572.574C1068.24,576.375 1078.51,576.246 1087.64,572.062C1097.49,567.555 1102.4,560.387 1103.72,550.453C1106.39,530.344 1083.26,512.922 1065.47,524.402C1056.86,529.953 1057.47,541.59 1063.86,548.676C1066.99,552.133 1071.68,553.824 1076.25,553.906C1078.8,553.926 1081.23,552.887 1083.38,551.598C1086.17,549.934 1089.05,543.941 1089.4,542.203C1087.99,549.113 1082.86,556.555 1075.92,558.449C1064.9,561.488 1055.74,550.195 1056.2,540.152C1056.49,533.52 1059.59,526.289 1064.37,521.898C1072.59,514.352 1086.86,514.789 1095.5,520.734C1101.39,524.773 1104.96,531.031 1106.16,537.781C1106.22,537.75 1106.3,537.687 1106.36,537.672C1129.7,533.211 1149.96,547.254 1145.21,576.715C1145.19,576.797 1145.12,576.844 1145.08,576.914C1151.83,578.152 1158.07,581.734 1162.09,587.645C1167.99,596.305 1168.39,610.57 1160.8,618.77C1156.38,623.539 1149.14,626.594 1142.52,626.867" style="fill:rgb(35,31,32);fill-rule:nonzero;"/>
                    </g>
                    <g transform="matrix(1.35516,0,0,-1.35595,1781.31,172.754)">
                        <path d="M322.313,307.973C322.262,305.984 322.398,303.98 322.754,302.02C322.879,301.293 323.055,300.574 323.246,299.859C303.441,301.215 293.211,290.98 296.371,272.832C295.656,273.016 294.93,273.187 294.211,273.309C292.238,273.656 290.242,273.793 288.258,273.727C282.879,297.805 297.723,312.746 322.313,307.973ZM1106.21,302.02C1106.56,303.98 1106.69,305.984 1106.65,307.973C1131.24,312.746 1146.08,297.805 1140.7,273.727C1138.72,273.793 1136.72,273.656 1134.75,273.309C1134.03,273.187 1133.3,273.016 1132.58,272.832C1135.75,290.98 1125.51,301.215 1105.71,299.859C1105.91,300.574 1106.07,301.293 1106.21,302.02ZM286.414,223.297C296.469,222.891 307.719,232.09 304.645,243.105C302.719,250.039 295.246,255.141 288.34,256.52C290.078,256.18 296.074,253.316 297.758,250.535C299.051,248.395 300.098,245.957 300.078,243.402C300.031,238.844 298.359,234.145 294.91,231C287.844,224.582 276.223,223.93 270.621,232.516C259.078,250.254 276.41,273.453 296.512,270.875C306.465,269.594 313.652,264.699 318.199,254.871C322.414,245.773 322.594,235.492 318.824,226.176C311.766,208.703 294.109,195.336 275.977,199.438C274.547,199.762 273.031,200.598 273.031,200.598L273.031,180.531L277.945,180.531L277.945,196.895C277.965,196.887 277.977,196.879 278,196.871C290.656,195.145 303.891,198.809 313.207,207.773C328.563,222.543 332.242,249.305 313.965,263.574C310.012,266.66 305.273,269.625 300.359,271.539C300.633,271.738 300.402,271.734 300.137,272.633C294.813,290.781 307.152,300.707 323.461,296.102C324.359,295.848 324.359,295.602 324.551,295.875C326.484,290.977 329.484,286.246 332.563,282.301C346.922,264.09 373.66,267.875 388.371,283.297C397.293,292.656 400.91,305.898 399.129,318.551C399.129,318.566 399.109,318.582 399.105,318.605C400.758,318.605 634.984,318.637 634.984,318.637C642.926,309.156 656.098,300.574 668.234,300.301C682.391,299.992 696.613,307.098 703.785,318.629C704.758,320.191 705.629,321.812 706.32,323.535C706.895,324.945 707.324,326.426 707.684,327.93C708.047,326.426 708.477,324.945 709.047,323.535C709.742,321.812 710.609,320.187 711.586,318.629C718.746,307.094 732.957,299.98 747.109,300.277C759.23,300.527 772.34,309.141 780.293,318.613L1029.85,318.605C1029.85,318.582 1029.83,318.566 1029.83,318.551C1028.04,305.898 1031.66,292.656 1040.58,283.297C1055.3,267.875 1082.04,264.09 1096.4,282.301C1099.48,286.246 1102.47,290.977 1104.41,295.875C1104.6,295.602 1104.6,295.848 1105.49,296.102C1121.81,300.707 1134.15,290.781 1128.82,272.633C1128.56,271.734 1128.33,271.738 1128.6,271.539C1123.68,269.625 1118.95,266.66 1114.99,263.574C1096.72,249.305 1100.4,222.543 1115.75,207.773C1125.06,198.809 1138.3,195.145 1150.95,196.871C1150.98,196.879 1151,196.887 1151.02,196.895L1151.02,180.531L1155.93,180.531L1155.93,200.598C1155.93,200.598 1154.42,199.762 1152.98,199.438C1134.84,195.336 1117.19,208.703 1110.13,226.176C1106.37,235.492 1106.55,245.773 1110.76,254.871C1115.31,264.699 1122.49,269.594 1132.44,270.875C1152.55,273.453 1169.88,250.254 1158.33,232.516C1152.74,223.93 1141.11,224.582 1134.05,231C1130.61,234.145 1128.93,238.844 1128.88,243.402C1128.86,245.957 1129.91,248.395 1131.21,250.535C1132.89,253.316 1138.88,256.18 1140.62,256.52C1133.72,255.141 1126.24,250.039 1124.31,243.105C1121.24,232.09 1132.49,222.891 1142.54,223.297C1149.17,223.574 1156.41,226.629 1160.83,231.398C1168.42,239.598 1168.02,253.863 1162.12,262.531C1158.1,268.434 1151.87,272.027 1145.11,273.254C1145.15,273.324 1145.22,273.383 1145.23,273.461C1150,302.922 1129.73,316.965 1106.4,312.504C1106.33,312.48 1106.26,312.418 1106.19,312.391C1104.99,319.141 1101.42,325.402 1095.53,329.445C1086.89,335.379 1072.62,335.828 1064.4,328.27C1059.62,323.879 1056.52,316.652 1056.23,310.02C1055.77,299.977 1064.93,288.684 1075.96,291.719C1082.89,293.613 1088.03,301.062 1089.44,307.973C1089.08,306.23 1086.2,300.234 1083.41,298.574C1081.27,297.281 1078.83,296.246 1076.28,296.27C1071.71,296.344 1067.02,298.035 1063.9,301.492C1057.5,308.586 1056.89,320.211 1065.5,325.77C1083.29,337.246 1106.42,319.824 1103.75,299.723C1102.43,289.781 1097.51,282.609 1087.67,278.109C1078.55,273.93 1068.27,273.793 1058.97,277.598C1041.52,284.742 1028.22,302.441 1032.41,320.559C1032.74,321.992 1033.58,323.508 1033.58,323.508C1033.58,323.508 780.52,323.57 780.508,323.535C780.41,323.203 779.984,321.855 779.289,320.762C778.934,320.199 778.531,319.691 778.148,319.156C778.145,319.148 778.133,319.137 778.129,319.125C778.008,318.953 777.887,318.777 777.766,318.613C767.277,304.773 746.637,302.309 730.094,309.293C725.031,311.434 720.621,314.637 717.078,318.629C715.719,320.156 714.461,321.785 713.379,323.535C712.129,325.559 711.059,327.711 710.223,330C709.32,332.434 708.746,334.77 708.453,337.031C708.348,337.844 707.93,341.941 707.695,343.227C707.449,341.973 707.031,337.816 706.914,336.957C706.617,334.711 706.051,332.395 705.152,329.977C704.312,327.699 703.246,325.559 701.992,323.535C700.902,321.785 699.648,320.164 698.285,318.629C694.727,314.652 690.316,311.437 685.242,309.301C668.719,302.336 648.094,304.824 637.617,318.637C637.473,318.824 637.336,319.031 637.199,319.219C637.195,319.234 637.188,319.25 637.18,319.254C636.801,319.777 636.41,320.27 636.07,320.82C635.43,321.852 634.625,323.543 634.625,323.543C599.316,323.543 395.375,323.508 395.375,323.508C395.375,323.508 396.223,321.992 396.551,320.559C400.734,302.441 387.434,284.742 369.988,277.598C360.691,273.793 350.414,273.93 341.289,278.109C331.441,282.609 326.52,289.781 325.203,299.723C322.539,319.824 345.66,337.246 363.453,325.77C372.063,320.211 371.457,308.586 365.063,301.492C361.934,298.035 357.25,296.344 352.68,296.27C350.129,296.246 347.691,297.281 345.551,298.574C342.758,300.234 339.871,306.23 339.523,307.973C340.93,301.062 346.07,293.613 353.008,291.719C364.031,288.684 373.184,299.977 372.73,310.02C372.437,316.652 369.344,323.879 364.559,328.27C356.336,335.828 342.07,335.379 333.426,329.445C327.539,325.402 323.969,319.141 322.77,312.391C322.703,312.418 322.633,312.48 322.566,312.504C299.227,316.965 278.965,302.922 283.727,273.461C283.734,273.383 283.813,273.324 283.848,273.254C277.098,272.027 270.852,268.434 266.832,262.531C260.934,253.863 260.543,239.598 268.133,231.398C272.547,226.629 279.785,223.574 286.414,223.297" style="fill:rgb(35,31,32);fill-rule:nonzero;"/>
                    </g>
                    <g transform="matrix(1.35516,0,0,-1.35595,1781.31,620.001)">
                        <path d="M1155.94,432.285C1154.18,433.383 1152.56,434.625 1151.03,435.988C1147.04,439.539 1143.84,443.937 1141.69,449.008C1134.72,465.551 1137.18,486.191 1151.02,496.676C1151.18,496.797 1151.35,496.914 1151.53,497.039C1151.54,497.043 1151.54,497.059 1151.55,497.059C1152.09,497.437 1152.59,497.844 1153.16,498.203C1154.25,498.902 1155.62,499.32 1155.93,499.414C1155.94,499.422 1155.95,508.797 1155.95,523.906L1151.02,523.906L1151.02,499.211C1141.54,491.25 1132.93,478.145 1132.67,466.02C1132.39,451.871 1139.49,437.652 1151.03,430.5C1152.59,429.52 1154.22,428.652 1155.94,427.961C1157.35,427.387 1158.82,426.953 1160.33,426.594C1158.82,426.242 1157.35,425.801 1155.94,425.234C1154.22,424.535 1152.59,423.668 1151.03,422.691C1139.49,415.527 1132.4,401.297 1132.7,387.141C1132.97,375.012 1141.56,361.836 1151.05,353.891C1151.05,353.891 1151.05,344.586 1151.04,329.691L1155.94,329.691L1155.94,353.531C1155.94,353.531 1154.25,354.344 1153.22,354.977C1152.67,355.316 1152.18,355.711 1151.66,356.086C1151.65,356.102 1151.64,356.102 1151.63,356.109C1151.43,356.254 1151.23,356.383 1151.05,356.52C1137.22,367.008 1134.74,387.633 1141.7,404.16C1143.84,409.223 1147.04,413.633 1151.03,417.191C1152.56,418.551 1154.18,419.816 1155.94,420.902C1157.96,422.156 1160.1,423.223 1162.38,424.062C1164.8,424.957 1167.12,425.52 1169.36,425.824C1170.22,425.937 1174.37,426.355 1175.63,426.602C1174.35,426.836 1170.24,427.25 1169.44,427.363C1167.17,427.66 1164.83,428.234 1162.4,429.137C1160.12,429.973 1157.96,431.039 1155.94,432.285" style="fill:rgb(35,31,32);fill-rule:nonzero;"/>
                    </g>
                    <g transform="matrix(1.35516,0,0,-1.35595,1781.31,620.001)">
                        <path d="M272.883,432.285C274.637,433.383 276.266,434.625 277.793,435.988C281.773,439.539 284.984,443.937 287.125,449.008C294.102,465.551 291.645,486.191 277.801,496.676C277.637,496.797 277.461,496.914 277.289,497.039C277.281,497.043 277.273,497.059 277.266,497.059C276.73,497.437 276.227,497.844 275.66,498.203C274.57,498.902 273.207,499.32 272.887,499.414C272.879,499.422 272.871,508.797 272.871,523.906L277.809,523.906L277.809,499.211C287.277,491.25 295.891,478.145 296.141,466.02C296.434,451.871 289.328,437.652 277.793,430.5C276.227,429.52 274.602,428.652 272.883,427.961C271.469,427.387 269.996,426.953 268.488,426.594C269.996,426.242 271.469,425.801 272.883,425.234C274.598,424.535 276.227,423.668 277.785,422.691C289.328,415.527 296.426,401.297 296.113,387.141C295.848,375.012 287.266,361.836 277.777,353.891C277.777,353.891 277.777,344.586 277.781,329.691L272.879,329.691L272.879,353.531C272.879,353.531 274.57,354.344 275.598,354.977C276.148,355.316 276.645,355.711 277.16,356.086C277.176,356.102 277.184,356.102 277.191,356.109C277.391,356.254 277.59,356.383 277.777,356.52C291.598,367.008 294.078,387.633 287.113,404.16C284.98,409.223 281.773,413.633 277.785,417.191C276.258,418.551 274.637,419.816 272.879,420.902C270.863,422.156 268.711,423.223 266.434,424.062C264.023,424.957 261.703,425.52 259.461,425.824C258.602,425.937 254.449,426.355 253.184,426.602C254.477,426.836 258.582,427.25 259.383,427.363C261.648,427.66 263.984,428.234 266.422,429.137C268.703,429.973 270.859,431.039 272.883,432.285" style="fill:rgb(35,31,32);fill-rule:nonzero;"/>
                    </g>
                </g>
            </g>
        </g>
    </g>
</svg>
