<?xml version="1.0" encoding="UTF-8" standalone="no"?>
<!DOCTYPE svg PUBLIC "-//W3C//DTD SVG 1.1//EN" "http://www.w3.org/Graphics/SVG/1.1/DTD/svg11.dtd">
<svg width="100%" height="100%" viewBox="0 0 497 938" version="1.1" xmlns="http://www.w3.org/2000/svg" xmlns:xlink="http://www.w3.org/1999/xlink" xml:space="preserve" xmlns:serif="http://www.serif.com/" style="fill-rule:evenodd;clip-rule:evenodd;stroke-linejoin:round;stroke-miterlimit:2;">
    <g transform="matrix(1,0,0,1,-2878,-1608)">
        <g id="アートボード5" transform="matrix(1,0,0,1,-0.699328,-0.499958)">
            <rect x="2878.7" y="1608.5" width="496.023" height="937.5" style="fill:none;"/>
            <clipPath id="_clip1">
                <rect x="2878.7" y="1608.5" width="496.023" height="937.5"/>
            </clipPath>
            <g clip-path="url(#_clip1)">
                <g transform="matrix(4.16667,0,0,4.16667,2346.16,1296.5)">
                    <g transform="matrix(0.484496,0,0,-0.484496,128.073,300)">
                        <path d="M245.2,31.1C245.2,32.9 243.4,35 230.2,37.3L230.2,89.1C230.2,144.6 201,193.6 154.1,216.9C141.8,223 135.4,229.6 135.2,236.4C134.9,245.9 146.5,253.6 151.5,256.5C159.5,261.2 167.4,266.7 175,273.1C205.8,299 219.1,323.1 225,338.8C231.3,355.8 230.3,366.6 230.3,367L230.3,428C245.3,430.6 245.3,433.1 245.3,434.2L245.3,452.4C245.3,453.9 245.3,457.9 208.8,461.2C185.8,463.3 155.2,464.4 122.7,464.4C90.2,464.4 59.5,463.3 36.5,461.2C0,457.8 0,453.9 0,452.4L0,434.2C0,433.1 0,430.5 16.1,427.8L16.1,366.9C16,366 15.2,355.3 21.4,338.7C31.9,310.4 54.4,287.4 71.4,273C79,266.6 86.9,261 94.9,256.4C99.9,253.5 111.5,245.7 111.2,236.3C111,229.5 104.6,222.9 92.3,216.8C45.4,193.5 16.2,144.6 16.2,89L16.2,37.4C2,35.2 0,33 0,31.1L0,12C0,10.5 0,6.5 36.5,3.2C59.5,1.1 90.1,-0 122.6,-0C155.1,-0 185.7,1.1 208.7,3.2C245.2,6.5 245.2,10.5 245.2,12L245.2,31.1ZM243.2,31.1C243.2,30.9 242.3,29.1 230.2,27L230.2,35.3C242.6,33.1 243.2,31.3 243.2,31.1ZM36.7,459.2C59.6,461.3 90.1,462.4 122.6,462.4C155.1,462.4 185.6,461.3 208.5,459.2C242.8,456.1 243.2,452.4 243.2,452.4C243.2,452.4 242.8,448.7 208.5,445.6C185.6,443.5 155.1,442.4 122.6,442.4C90.1,442.4 59.6,443.5 36.7,445.6C2.4,448.7 2,452.3 2,452.4C2,452.5 2.4,456.1 36.7,459.2ZM2,434.2L2,449.8C5.3,448 13.9,445.7 36.5,443.6C59.5,441.5 90.1,440.4 122.6,440.4C155.1,440.4 185.7,441.5 208.7,443.6C231.4,445.7 240,448 243.2,449.8L243.2,434.2C243.2,434.2 242.8,430.5 208.5,427.4C185.6,425.3 155.1,424.2 122.6,424.2C90.1,424.2 59.6,425.3 36.7,427.4C2.4,430.5 2,434.1 2,434.2ZM93.1,215.1C106.1,221.6 112.9,228.7 113.1,236.3C113.4,246.8 101.1,255.1 95.8,258.2C87.9,262.8 80.1,268.3 72.6,274.6C42.2,300.2 29,323.9 23.3,339.3C17.1,355.9 18.1,366.7 18.1,366.8L18.1,427.5C22.9,426.8 28.9,426.1 36.5,425.4C59.5,423.3 90.1,422.2 122.6,422.2C155.1,422.2 185.7,423.3 208.7,425.4C216.9,426.1 223.3,426.9 228.2,427.7L228.2,366.8C228.2,366.7 229.2,355.9 223,339.3C212.6,311.4 190.4,288.7 173.7,274.6C166.2,268.3 158.4,262.8 150.5,258.2C145.2,255.1 132.9,246.8 133.2,236.3C133.4,228.7 140.2,221.5 153.2,215.1C199.5,192.2 228.2,143.9 228.2,89.1L228.2,26.7C206.6,23.3 166.3,21.1 122.6,21.1C79.8,21.1 39.9,23.2 18.1,26.5L18.1,89.1C18.1,143.8 46.9,192.1 93.1,215.1ZM16.1,35.5L16.1,26.9C2.2,29.1 2,31.1 2,31.1C2,31.1 2.2,33.1 16.1,35.5ZM208.5,5.2C185.6,3.1 155.1,2 122.6,2C90.1,2 59.6,3.1 36.7,5.2C2.4,8.3 2,11.9 2,12L2,28.5C4.1,27.3 8.5,26 17,24.6C38.7,21.2 79.2,19 122.6,19C166.6,19 207.1,21.2 228.7,24.6C228.8,24.5 229,24.5 229.1,24.5C229.4,24.5 229.6,24.6 229.8,24.8C237.2,26 241.1,27.3 243.1,28.4L243.1,11.9C243.2,11.9 242.8,8.3 208.5,5.2ZM28.8,31.1L28.8,45.6C28.8,46.2 29.2,46.6 29.8,46.6C30.4,46.6 30.8,46.2 30.8,45.6L30.8,31.1C30.8,30.5 30.4,30.1 29.8,30.1C29.2,30.1 28.8,30.6 28.8,31.1ZM28.8,54.2L28.8,74.5C28.8,75.1 29.2,75.5 29.8,75.5C30.4,75.5 30.8,75.1 30.8,74.5L30.8,54.2C30.8,53.6 30.4,53.2 29.8,53.2C29.2,53.2 28.8,53.6 28.8,54.2ZM28.8,83.4L28.8,89.1C28.8,89.7 29.2,90.1 29.8,90.1C30.4,90.1 30.8,89.7 30.8,89.1L30.8,83.4C30.8,82.8 30.4,82.4 29.8,82.4C29.2,82.4 28.8,82.9 28.8,83.4ZM30,107.9C30.2,109.7 30.5,111.5 30.7,113.3C30.8,113.8 31.3,114.2 31.8,114.1C32.3,114 32.7,113.5 32.6,113C32.3,111.3 32.1,109.5 31.9,107.7C31.8,107.2 31.4,106.8 30.9,106.8L30.8,106.8C30.3,106.8 29.9,107.3 30,107.9ZM61.4,298.2C61.8,297.8 61.7,297.2 61.3,296.8C61.1,296.6 60.9,296.6 60.6,296.6C60.3,296.6 60,296.7 59.8,296.9C56.2,301.1 52.9,305.3 49.8,309.5C49.5,309.9 49.6,310.6 50,310.9C50.4,311.2 51.1,311.1 51.4,310.7C54.6,306.5 57.9,302.3 61.4,298.2ZM46.4,318.5C46.7,318 46.5,317.4 46.1,317.1C45.9,317 45.8,316.9 45.6,316.9C45.3,316.9 44.9,317.1 44.7,317.4C44.1,318.4 43.5,319.4 42.9,320.3C42.6,320.8 42.8,321.4 43.3,321.7C43.8,322 44.4,321.8 44.7,321.3C45.2,320.4 45.8,319.4 46.4,318.5ZM37.2,336.3C37.4,335.8 37.2,335.2 36.7,335C36.6,334.9 36.4,334.9 36.3,334.9C35.9,334.9 35.5,335.1 35.4,335.5C32.8,341.8 30.9,348 29.8,354C28.4,361.8 28.8,366.4 28.9,367L28.9,373.2C28.9,373.8 29.3,374.2 29.9,374.2C30.5,374.2 30.9,373.8 30.9,373.2L30.9,366.9C30.9,366.9 30.4,362.2 31.8,354.4C32.8,348.5 34.6,342.4 37.2,336.3ZM28.8,388.1L28.8,416.4C28.8,417 29.2,417.4 29.8,417.4C30.4,417.4 30.8,417 30.8,416.4L30.8,388.1C30.8,387.5 30.4,387.1 29.8,387.1C29.2,387.1 28.8,387.6 28.8,388.1ZM220.9,54.2L220.9,40.2C220.9,39.6 220.5,39.2 219.9,39.2C219.3,39.2 218.9,39.6 218.9,40.2L218.9,54.2C218.9,54.8 219.3,55.2 219.9,55.2C220.5,55.2 220.9,54.7 220.9,54.2ZM219.9,90.1C220.5,90.1 220.9,89.7 220.9,89.1L220.9,62.4C220.9,61.8 220.5,61.4 219.9,61.4C219.3,61.4 218.9,61.8 218.9,62.4L218.9,89C218.9,89.6 219.4,90.1 219.9,90.1ZM217.9,106.4C217.7,108 217.5,109.5 217.3,111.1C217.2,111.6 217.6,112.2 218.1,112.2C218.7,112.3 219.2,111.9 219.2,111.4C219.4,109.8 219.6,108.2 219.8,106.7C219.9,106.2 219.5,105.7 218.9,105.6L218.8,105.6C218.4,105.5 218,105.9 217.9,106.4ZM204.2,154C204,154.5 204.2,155.1 204.7,155.3C205.2,155.5 205.8,155.3 206,154.8C210.4,145.8 213.9,136.2 216.4,126.3C216.5,125.8 216.2,125.2 215.7,125.1L215.5,125.1C215.1,125.1 214.6,125.4 214.5,125.9C212,135.6 208.6,145.1 204.2,154ZM196.7,167.3C196.4,167.8 196.5,168.4 197,168.7C197.5,169 198.1,168.9 198.4,168.4C199.1,167.3 199.8,166.1 200.5,164.9C200.8,164.4 200.6,163.8 200.2,163.5C200,163.4 199.9,163.4 199.7,163.4C199.4,163.4 199,163.6 198.8,163.9C198.1,165.1 197.4,166.2 196.7,167.3ZM178.2,190.5C177.8,190.9 177.8,191.5 178.2,191.9C178.6,192.3 179.2,192.3 179.6,191.9C184.3,187.2 188.8,182 192.8,176.6C193.1,176.2 193,175.5 192.6,175.2C192.4,175.1 192.2,175 192,175C191.7,175 191.4,175.1 191.2,175.4C187.2,180.7 182.8,185.8 178.2,190.5ZM210.1,331C217.9,347.5 218.9,359.8 219,364.3C219,364.8 219.5,365.3 220,365.3C220.6,365.3 221,364.8 221,364.3C220.9,358.5 219.6,346.4 211.9,330.1C211.7,329.7 211.4,329.5 211,329.5C210.9,329.5 210.7,329.5 210.6,329.6C210,329.9 209.8,330.5 210.1,331ZM218.9,378L218.9,399.9C218.9,400.5 219.3,400.9 219.9,400.9C220.5,400.9 220.9,400.5 220.9,399.9L220.9,378C220.9,377.4 220.5,377 219.9,377C219.3,377 218.9,377.5 218.9,378ZM218.9,410.1L218.9,415.8C218.9,416.4 219.3,416.8 219.9,416.8C220.5,416.8 220.9,416.4 220.9,415.8L220.9,410.1C220.9,409.5 220.5,409.1 219.9,409.1C219.3,409.1 218.9,409.5 218.9,410.1ZM161.5,308.5C161.8,308.8 161.9,309.3 161.8,309.7C161.6,310.1 161.2,310.3 160.8,310.3C158.8,310 156.8,309.9 154.9,309.9C128.6,309.9 107.2,331.3 107.2,357.6C107.2,378.6 120.7,396.9 140.7,403.2C141.1,403.3 141.4,403.7 141.4,404.2C141.4,404.7 141.1,405 140.7,405.2C135.6,406.7 130.3,407.4 125,407.4C94,407.4 68.8,382.2 68.8,351.2C68.8,320.2 94,295 125,295C138.3,294.9 151.3,299.7 161.5,308.5ZM70.6,351.1C70.6,381 94.9,405.3 124.8,405.3C128.8,405.3 132.9,404.8 136.8,404C117.7,396.6 105.1,378.4 105.1,357.6C105.1,330.2 127.4,307.9 154.8,307.9C155.7,307.9 156.7,307.9 157.6,308C148.2,300.8 136.7,296.9 124.8,296.9C95,296.9 70.6,321.2 70.6,351.1ZM122.2,259C122.3,258.5 122.7,258.2 123.2,258.2C123.7,258.2 124.1,258.5 124.2,259C125.8,265.9 126.9,267 133.8,268.6C134.3,268.7 134.6,269.1 134.6,269.6C134.6,270.1 134.3,270.5 133.8,270.6C126.9,272.2 125.8,273.3 124.2,280.2C124.1,280.7 123.7,281 123.2,281C122.7,281 122.3,280.7 122.2,280.2C120.6,273.3 119.5,272.2 112.6,270.6C112.1,270.5 111.8,270.1 111.8,269.6C111.8,269.1 112.1,268.7 112.6,268.6C119.5,266.9 120.5,265.9 122.2,259ZM123.1,276.2C124.4,272.5 126,270.8 129.7,269.6C126,268.3 124.3,266.7 123.1,263C121.8,266.7 120.2,268.4 116.5,269.6C120.2,270.8 121.9,272.5 123.1,276.2ZM174.5,387.1C181.4,385.5 182.5,384.4 184.1,377.5C184.2,377 184.6,376.7 185.1,376.7C185.6,376.7 186,377 186.1,377.5C187.7,384.4 188.8,385.5 195.7,387.1C196.2,387.2 196.5,387.6 196.5,388.1C196.5,388.6 196.2,389 195.7,389.1C188.8,390.7 187.7,391.8 186.1,398.7C186,399.2 185.6,399.5 185.1,399.5C184.6,399.5 184.2,399.2 184.1,398.7C182.5,391.8 181.4,390.7 174.5,389.1C174,389 173.7,388.6 173.7,388.1C173.7,387.6 174.1,387.2 174.5,387.1ZM185.1,394.7C186.4,391 188,389.3 191.7,388.1C188,386.8 186.3,385.2 185.1,381.5C183.8,385.2 182.2,386.9 178.5,388.1C182.2,389.4 183.9,391 185.1,394.7ZM120.3,153.4C120.2,153.9 119.8,154.2 119.3,154.2C118.8,154.2 118.4,153.9 118.3,153.4C117,147.8 116.1,147 110.6,145.7C110.1,145.6 109.8,145.2 109.8,144.7C109.8,144.2 110.1,143.8 110.6,143.7C116.2,142.4 117,141.5 118.3,136C118.4,135.5 118.8,135.2 119.3,135.2C119.8,135.2 120.2,135.5 120.3,136C121.6,141.6 122.5,142.4 128,143.7C128.5,143.8 128.8,144.2 128.8,144.7C128.8,145.2 128.5,145.6 128,145.7C122.5,146.9 121.6,147.8 120.3,153.4ZM119.4,139.7C118.4,142.3 117.1,143.6 114.5,144.6C117.1,145.6 118.4,146.9 119.4,149.5C120.4,146.9 121.7,145.6 124.3,144.6C121.7,143.7 120.3,142.3 119.4,139.7ZM152.1,338.8L164.4,337.3L166,325C166.1,324.5 166.5,324.1 167,324.1C167.5,324.1 167.9,324.5 168,325L169.6,337.3L181.9,338.9C182.4,339 182.8,339.4 182.8,339.9C182.8,340.4 182.4,340.8 181.9,340.9L169.6,342.5L168,354.8C167.9,355.3 167.5,355.7 167,355.7C166.5,355.7 166.1,355.3 166,354.8L164.4,342.5L152.1,340.9C151.6,340.8 151.2,340.4 151.2,339.9C151.2,339.4 151.6,338.9 152.1,338.8ZM165.4,340.5C165.9,340.6 166.2,340.9 166.3,341.4L167,346.7L167.7,341.4C167.8,340.9 168.1,340.6 168.6,340.5L173.9,339.8L168.6,339.1C168.1,339 167.8,338.7 167.7,338.2L167,332.8L166.3,338.2C166.2,338.7 165.9,339 165.4,339.1L160.1,339.8L165.4,340.5ZM128.9,175.9C128.9,175.4 129.3,175 129.8,174.9L142,173.4L143.6,161.1C143.7,160.6 144.1,160.2 144.6,160.2C145.1,160.2 145.5,160.6 145.6,161.1L147.2,173.4L159.5,175C160,175.1 160.4,175.5 160.4,176C160.4,176.5 160,176.9 159.5,177L147.2,178.6L145.6,190.8C145.5,191.3 145.1,191.7 144.6,191.7C144.1,191.7 143.7,191.3 143.6,190.8L142,178.6L129.7,177C129.2,176.8 128.9,176.4 128.9,175.9ZM143,176.6C143.5,176.7 143.8,177 143.9,177.5L144.6,182.8L145.3,177.5C145.4,177 145.7,176.7 146.2,176.6L151.5,175.9L146.2,175.2C145.7,175.1 145.4,174.8 145.3,174.3L144.6,169L143.9,174.3C143.8,174.8 143.5,175.1 143,175.2L137.7,175.9L143,176.6ZM55.7,394.1C52.4,394.1 49.8,391.4 49.8,388.2C49.8,384.9 52.5,382.3 55.7,382.3C59,382.3 61.6,385 61.6,388.2C61.7,391.4 59,394.1 55.7,394.1ZM55.7,384.2C53.5,384.2 51.8,386 51.8,388.1C51.8,390.2 53.6,392 55.7,392C57.8,392 59.6,390.2 59.6,388.1C59.6,386 57.9,384.2 55.7,384.2ZM137.6,367.9C135.2,367.9 133.2,365.9 133.2,363.5C133.2,361.1 135.2,359.1 137.6,359.1C140,359.1 142,361.1 142,363.5C142,365.9 140,367.9 137.6,367.9ZM137.6,361C136.3,361 135.2,362.1 135.2,363.4C135.2,364.7 136.3,365.8 137.6,365.8C138.9,365.8 140,364.7 140,363.4C140,362.1 138.9,361 137.6,361ZM108.8,195.5C111.2,195.5 113.2,197.5 113.2,199.9C113.2,202.3 111.2,204.3 108.8,204.3C106.4,204.3 104.4,202.3 104.4,199.9C104.4,197.4 106.3,195.5 108.8,195.5ZM108.8,202.3C110.1,202.3 111.2,201.2 111.2,199.9C111.2,198.6 110.1,197.5 108.8,197.5C107.5,197.5 106.4,198.6 106.4,199.9C106.4,201.2 107.4,202.3 108.8,202.3ZM168,125.1C170.9,125.1 173.3,127.5 173.3,130.4C173.3,133.3 170.9,135.7 168,135.7C165.1,135.7 162.7,133.3 162.7,130.4C162.7,127.5 165.1,125.1 168,125.1ZM168,133.8C169.8,133.8 171.3,132.3 171.3,130.5C171.3,128.7 169.8,127.2 168,127.2C166.2,127.2 164.7,128.7 164.7,130.5C164.7,132.3 166.2,133.8 168,133.8ZM44.5,34.2C45,34.1 81.8,28 129.1,28C152.9,28 179.4,29.5 205.3,34.2C205.8,34.3 206.1,34.7 206.1,35.2L206.1,94.8C206.1,95.3 206,107.8 197,113.4C190,117.8 179.8,116.7 166.6,110.3C133.3,94.1 121.5,102.5 104.9,117.5C98,123.8 89.2,129.8 81.6,133.7C70.8,139 62.1,140.3 55.6,137.4C47.6,133.9 43.6,124.2 43.6,108.8L43.6,35.2C43.6,34.7 44,34.3 44.5,34.2ZM45.6,108.7C45.6,123.3 49.2,132.3 56.4,135.5C70.1,141.6 93.3,125.4 103.6,116C120.8,100.3 133.7,92 167.5,108.5C180,114.6 189.6,115.7 195.9,111.7C204,106.7 204.1,94.9 204.1,94.8L204.1,36C131.5,23.2 54.4,34.6 45.6,36L45.6,108.7L45.6,108.7ZM77.4,88.8C77.4,87.2 76.1,86 74.6,86C73,86 71.8,87.3 71.8,88.8C71.8,90.4 73.1,91.6 74.6,91.6C76.1,91.6 77.4,90.4 77.4,88.8ZM139.6,54.2C139.6,56.3 141.3,58 143.4,58C145.5,58 147.2,56.3 147.2,54.2C147.2,52.1 145.5,50.4 143.4,50.4C141.3,50.4 139.6,52.1 139.6,54.2ZM172.4,92.7C172.4,93.9 173.3,94.8 174.5,94.8C175.7,94.8 176.6,93.9 176.6,92.7C176.6,91.5 175.7,90.6 174.5,90.6C173.3,90.6 172.4,91.5 172.4,92.7ZM92,67.8C92,66.9 91.3,66.2 90.4,66.2C89.5,66.2 88.8,66.9 88.8,67.8C88.8,68.7 89.5,69.4 90.4,69.4C91.3,69.4 92,68.7 92,67.8ZM197.1,362C197.1,363.6 198.4,364.8 199.9,364.8C201.5,364.8 202.7,363.5 202.7,362C202.7,360.4 201.4,359.2 199.9,359.2C198.4,359.2 197.1,360.4 197.1,362ZM87.1,163.3C87.1,164.2 87.8,164.9 88.7,164.9C89.6,164.9 90.3,164.2 90.3,163.3C90.3,162.4 89.6,161.7 88.7,161.7C87.8,161.7 87.1,162.4 87.1,163.3Z" style="fill:rgb(67,37,101);fill-rule:nonzero;"/>
                    </g>
                    <g transform="matrix(1,0,0,1,0,-8.04)">
                        <rect x="127.977" y="83.04" width="119.045" height="225" style="fill-opacity:0;"/>
                    </g>
                </g>
            </g>
        </g>
    </g>
</svg>
