<svg width="858" height="817" viewBox="0 0 858 817" fill="none" xmlns="http://www.w3.org/2000/svg">
<path fill-rule="evenodd" clip-rule="evenodd" d="M348.018 180.172C349.759 183.667 352.55 184.689 355.158 182.786C357.764 180.882 359.709 176.404 360.132 171.328C364.23 122.038 372.225 25.9015 372.225 25.9015C373.51 10.4451 387.733 -1.0079 403.971 0.342356L462.806 5.23485C479.042 6.58495 491.18 20.2301 489.895 35.6865L479.05 166.103C478.628 171.179 479.804 175.917 482.062 178.225C484.318 180.535 487.239 179.988 489.536 176.827C517.319 138.568 580.508 51.5612 580.508 51.5612C589.739 38.8505 608.129 35.7542 621.547 44.6516L670.172 76.8942C683.59 85.7916 686.989 103.336 677.757 116.046C677.757 116.046 637.576 171.372 609.517 210.01C606.766 213.796 605.583 220.392 606.669 225.861C607.756 231.331 610.822 234.205 614.04 232.769C661.952 211.398 748.268 172.892 748.268 172.892C762.971 166.333 780.596 172.424 787.601 186.485L812.985 237.439C819.989 251.5 813.739 268.24 799.035 274.799C799.035 274.799 740.484 300.919 696.278 320.64C692.863 322.162 690.286 328.072 690.231 334.502C690.177 340.931 692.664 345.92 696.063 346.202C750.164 350.701 830.549 357.386 830.549 357.386C846.786 358.736 858.925 372.381 857.639 387.837L852.982 443.848C851.696 459.307 837.471 470.758 821.233 469.407L702.512 459.535C699.113 459.252 695.838 463.762 694.83 470.113C693.821 476.462 695.386 482.717 698.502 484.784C743.042 514.317 805.307 555.606 805.307 555.606C818.725 564.503 822.123 582.047 812.892 594.758L779.441 640.818C770.21 653.529 751.821 656.625 738.403 647.727C738.403 647.727 669.306 601.909 628.939 575.141C626.002 573.195 622.503 575.522 620.528 580.737C618.551 585.953 618.63 592.653 620.718 596.842C644.061 643.699 679.303 714.44 679.303 714.44C686.307 728.501 680.057 745.24 665.353 751.799L612.072 775.57C597.369 782.129 579.744 776.037 572.739 761.976C572.739 761.976 530.173 676.534 510.507 637.057C508.766 633.56 505.975 632.54 503.367 634.443C500.761 636.347 498.815 640.825 498.393 645.901C494.295 695.19 486.3 791.327 486.3 791.327C485.015 806.784 470.79 818.237 454.554 816.886L395.719 811.994C379.483 810.644 367.345 796.999 368.63 781.542L379.475 651.123C379.897 646.048 378.719 641.309 376.463 639.002C374.205 636.694 371.284 637.241 368.989 640.4C341.204 678.658 278.015 765.667 278.015 765.667C268.784 778.378 250.396 781.475 236.978 772.577L188.353 740.335C174.935 731.435 171.535 713.893 180.766 701.182C180.766 701.182 220.947 645.856 249.008 607.219C251.757 603.432 252.942 596.837 251.856 591.366C250.767 585.897 247.701 583.022 244.483 584.458C196.573 605.831 110.258 644.335 110.258 644.335C95.5521 650.896 77.9289 644.805 70.9241 630.744L45.5403 579.79C38.5355 565.729 44.7845 548.987 59.4878 542.428C59.4878 542.428 118.042 516.308 162.247 496.589C165.662 495.065 168.238 489.155 168.292 482.726C168.346 476.297 165.861 471.309 162.462 471.027C108.359 466.528 27.9744 459.843 27.9744 459.843C11.7387 458.493 -0.399588 444.848 0.885706 429.391L5.54351 373.379C6.82881 357.922 21.0542 346.469 37.2898 347.819L156.013 357.692C159.411 357.974 162.687 353.465 163.695 347.116C164.704 340.767 163.138 334.51 160.023 332.445C115.481 302.91 53.2177 261.623 53.2177 261.623C39.7996 252.725 36.3999 235.181 45.6308 222.471L79.0837 176.411C88.3148 163.698 106.702 160.604 120.12 169.501C120.12 169.501 189.219 215.32 229.585 242.086C232.523 244.034 236.02 241.706 237.997 236.49C239.972 231.274 239.893 224.575 237.807 220.387C214.464 173.53 179.222 102.789 179.222 102.789C172.218 88.7282 178.467 71.9866 193.17 65.4277L246.452 41.6593C261.156 35.1004 278.781 41.1915 285.786 55.2523C285.786 55.2523 328.352 140.694 348.018 180.172Z" fill="#F4EFFA"/>
</svg>
